<?xml version="1.0" encoding="UTF-8" standalone="no"?>
<!DOCTYPE svg PUBLIC "-//W3C//DTD SVG 1.1//EN"
 "http://www.w3.org/Graphics/SVG/1.1/DTD/svg11.dtd">
<!-- Generated by graphviz version 8.0.5 (0)
 -->
<!-- Title: snakemake_dag Pages: 1 -->
<svg width="253pt" height="764pt"
 viewBox="0.00 0.00 253.12 764.00" xmlns="http://www.w3.org/2000/svg" xmlns:xlink="http://www.w3.org/1999/xlink">
<g id="graph0" class="graph" transform="scale(1 1) rotate(0) translate(4 760)">
<title>snakemake_dag</title>
<polygon fill="white" stroke="none" points="-4,4 -4,-760 249.12,-760 249.12,4 -4,4"/>
<!-- 0 -->
<g id="node1" class="node">
<title>0</title>
<path fill="none" stroke="#567bd8" stroke-width="2" stroke-dasharray="1,5" d="M52,-36C52,-36 22,-36 22,-36 16,-36 10,-30 10,-24 10,-24 10,-12 10,-12 10,-6 16,0 22,0 22,0 52,0 52,0 58,0 64,-6 64,-12 64,-12 64,-24 64,-24 64,-30 58,-36 52,-36"/>
<text text-anchor="middle" x="37" y="-14.12" font-family="sans" font-size="10.00">all</text>
</g>
<!-- 1 -->
<g id="node2" class="node">
<title>1</title>
<path fill="none" stroke="#56d0d8" stroke-width="2" stroke-dasharray="1,5" d="M52,-108C52,-108 22,-108 22,-108 16,-108 10,-102 10,-96 10,-96 10,-84 10,-84 10,-78 16,-72 22,-72 22,-72 52,-72 52,-72 58,-72 64,-78 64,-84 64,-84 64,-96 64,-96 64,-102 58,-108 52,-108"/>
<text text-anchor="middle" x="37" y="-86.12" font-family="sans" font-size="10.00">raxml</text>
</g>
<!-- 1&#45;&gt;0 -->
<g id="edge1" class="edge">
<title>1&#45;&gt;0</title>
<path fill="none" stroke="grey" stroke-width="2" d="M37,-71.34C37,-64.75 37,-57.08 37,-49.67"/>
<polygon fill="grey" stroke="grey" stroke-width="2" points="40.5,-49.9 37,-39.9 33.5,-49.9 40.5,-49.9"/>
</g>
<!-- 2 -->
<g id="node3" class="node">
<title>2</title>
<path fill="none" stroke="#8fd856" stroke-width="2" stroke-dasharray="1,5" d="M64.75,-396C64.75,-396 23.25,-396 23.25,-396 17.25,-396 11.25,-390 11.25,-384 11.25,-384 11.25,-372 11.25,-372 11.25,-366 17.25,-360 23.25,-360 23.25,-360 64.75,-360 64.75,-360 70.75,-360 76.75,-366 76.75,-372 76.75,-372 76.75,-384 76.75,-384 76.75,-390 70.75,-396 64.75,-396"/>
<text text-anchor="middle" x="44" y="-374.12" font-family="sans" font-size="10.00">replace_ids</text>
</g>
<!-- 2&#45;&gt;1 -->
<g id="edge2" class="edge">
<title>2&#45;&gt;1</title>
<path fill="none" stroke="grey" stroke-width="2" d="M40.2,-359.13C32.4,-320.05 16.05,-224.06 25,-144 25.83,-136.62 27.28,-128.76 28.9,-121.42"/>
<polygon fill="grey" stroke="grey" stroke-width="2" points="32.95,-121.52 31.88,-110.98 26.14,-119.89 32.95,-121.52"/>
</g>
<!-- 8 -->
<g id="node9" class="node">
<title>8</title>
<path fill="none" stroke="#56a9d8" stroke-width="2" stroke-dasharray="1,5" d="M89.88,-180C89.88,-180 46.12,-180 46.12,-180 40.12,-180 34.12,-174 34.12,-168 34.12,-168 34.12,-156 34.12,-156 34.12,-150 40.12,-144 46.12,-144 46.12,-144 89.88,-144 89.88,-144 95.88,-144 101.88,-150 101.88,-156 101.88,-156 101.88,-168 101.88,-168 101.88,-174 95.88,-180 89.88,-180"/>
<text text-anchor="middle" x="68" y="-158.12" font-family="sans" font-size="10.00">edit_newick</text>
</g>
<!-- 2&#45;&gt;8 -->
<g id="edge10" class="edge">
<title>2&#45;&gt;8</title>
<path fill="none" stroke="grey" stroke-width="2" d="M46,-359.12C50.1,-322.62 59.46,-239.13 64.55,-193.74"/>
<polygon fill="grey" stroke="grey" stroke-width="2" points="68.35,-194.3 65.98,-183.98 61.39,-193.52 68.35,-194.3"/>
</g>
<!-- 12 -->
<g id="node13" class="node">
<title>12</title>
<path fill="none" stroke="#d8a456" stroke-width="2" stroke-dasharray="1,5" d="M126.12,-324C126.12,-324 83.88,-324 83.88,-324 77.88,-324 71.88,-318 71.88,-312 71.88,-312 71.88,-300 71.88,-300 71.88,-294 77.88,-288 83.88,-288 83.88,-288 126.12,-288 126.12,-288 132.12,-288 138.12,-294 138.12,-300 138.12,-300 138.12,-312 138.12,-312 138.12,-318 132.12,-324 126.12,-324"/>
<text text-anchor="middle" x="105" y="-302.12" font-family="sans" font-size="10.00">unique_otts</text>
</g>
<!-- 2&#45;&gt;12 -->
<g id="edge15" class="edge">
<title>2&#45;&gt;12</title>
<path fill="none" stroke="grey" stroke-width="2" d="M59.39,-359.34C65.92,-351.85 73.67,-342.95 80.92,-334.63"/>
<polygon fill="grey" stroke="grey" stroke-width="2" points="84.47,-336.74 88.4,-326.9 79.19,-332.14 84.47,-336.74"/>
</g>
<!-- 3 -->
<g id="node4" class="node">
<title>3</title>
<path fill="none" stroke="#b6d856" stroke-width="2" stroke-dasharray="1,5" d="M67.75,-612C67.75,-612 20.25,-612 20.25,-612 14.25,-612 8.25,-606 8.25,-600 8.25,-600 8.25,-588 8.25,-588 8.25,-582 14.25,-576 20.25,-576 20.25,-576 67.75,-576 67.75,-576 73.75,-576 79.75,-582 79.75,-588 79.75,-588 79.75,-600 79.75,-600 79.75,-606 73.75,-612 67.75,-612"/>
<text text-anchor="middle" x="44" y="-590.12" font-family="sans" font-size="10.00">map_opentol</text>
</g>
<!-- 3&#45;&gt;2 -->
<g id="edge4" class="edge">
<title>3&#45;&gt;2</title>
<path fill="none" stroke="grey" stroke-width="2" d="M38.88,-575.02C36.25,-564.84 33.32,-551.81 32,-540 26.67,-492.3 26.67,-479.7 32,-432 32.83,-424.62 34.28,-416.76 35.9,-409.42"/>
<polygon fill="grey" stroke="grey" stroke-width="2" points="39.95,-409.52 38.88,-398.98 33.14,-407.89 39.95,-409.52"/>
</g>
<!-- 7 -->
<g id="node8" class="node">
<title>7</title>
<path fill="none" stroke="#d87d56" stroke-width="2" d="M98.62,-540C98.62,-540 53.38,-540 53.38,-540 47.38,-540 41.38,-534 41.38,-528 41.38,-528 41.38,-516 41.38,-516 41.38,-510 47.38,-504 53.38,-504 53.38,-504 98.62,-504 98.62,-504 104.62,-504 110.62,-510 110.62,-516 110.62,-516 110.62,-528 110.62,-528 110.62,-534 104.62,-540 98.62,-540"/>
<text text-anchor="middle" x="76" y="-523.75" font-family="sans" font-size="10.00">family_fasta</text>
<text text-anchor="middle" x="76" y="-512.5" font-family="sans" font-size="10.00">family: ...</text>
</g>
<!-- 3&#45;&gt;7 -->
<g id="edge9" class="edge">
<title>3&#45;&gt;7</title>
<path fill="none" stroke="grey" stroke-width="2" d="M52.07,-575.34C55.23,-568.43 58.94,-560.31 62.49,-552.56"/>
<polygon fill="grey" stroke="grey" stroke-width="2" points="65.84,-553.45 66.82,-542.9 59.48,-550.54 65.84,-553.45"/>
</g>
<!-- 4 -->
<g id="node5" class="node">
<title>4</title>
<path fill="none" stroke="#56d86b" stroke-width="2" stroke-dasharray="1,5" d="M76,-684C76,-684 12,-684 12,-684 6,-684 0,-678 0,-672 0,-672 0,-660 0,-660 0,-654 6,-648 12,-648 12,-648 76,-648 76,-648 82,-648 88,-654 88,-660 88,-660 88,-672 88,-672 88,-678 82,-684 76,-684"/>
<text text-anchor="middle" x="44" y="-662.12" font-family="sans" font-size="10.00">create_database</text>
</g>
<!-- 4&#45;&gt;3 -->
<g id="edge6" class="edge">
<title>4&#45;&gt;3</title>
<path fill="none" stroke="grey" stroke-width="2" d="M44,-647.34C44,-640.75 44,-633.08 44,-625.67"/>
<polygon fill="grey" stroke="grey" stroke-width="2" points="47.5,-625.9 44,-615.9 40.5,-625.9 47.5,-625.9"/>
</g>
<!-- 5 -->
<g id="node6" class="node">
<title>5</title>
<path fill="none" stroke="#d85656" stroke-width="2" stroke-dasharray="5,2" d="M59,-756C59,-756 29,-756 29,-756 23,-756 17,-750 17,-744 17,-744 17,-732 17,-732 17,-726 23,-720 29,-720 29,-720 59,-720 59,-720 65,-720 71,-726 71,-732 71,-732 71,-744 71,-744 71,-750 65,-756 59,-756"/>
<text text-anchor="middle" x="44" y="-734.12" font-family="sans" font-size="10.00">unzip</text>
</g>
<!-- 5&#45;&gt;4 -->
<g id="edge7" class="edge">
<title>5&#45;&gt;4</title>
<path fill="none" stroke="grey" stroke-width="2" d="M44,-719.34C44,-712.75 44,-705.08 44,-697.67"/>
<polygon fill="grey" stroke="grey" stroke-width="2" points="47.5,-697.9 44,-687.9 40.5,-697.9 47.5,-697.9"/>
</g>
<!-- 6 -->
<g id="node7" class="node">
<title>6</title>
<path fill="none" stroke="#56d8b9" stroke-width="2" stroke-dasharray="1,5" d="M99.38,-468C99.38,-468 52.62,-468 52.62,-468 46.62,-468 40.62,-462 40.62,-456 40.62,-456 40.62,-444 40.62,-444 40.62,-438 46.62,-432 52.62,-432 52.62,-432 99.38,-432 99.38,-432 105.38,-432 111.38,-438 111.38,-444 111.38,-444 111.38,-456 111.38,-456 111.38,-462 105.38,-468 99.38,-468"/>
<text text-anchor="middle" x="76" y="-446.12" font-family="sans" font-size="10.00">align_macse</text>
</g>
<!-- 6&#45;&gt;2 -->
<g id="edge5" class="edge">
<title>6&#45;&gt;2</title>
<path fill="none" stroke="grey" stroke-width="2" d="M67.93,-431.34C64.77,-424.43 61.06,-416.31 57.51,-408.56"/>
<polygon fill="grey" stroke="grey" stroke-width="2" points="60.52,-406.54 53.18,-398.9 54.16,-409.45 60.52,-406.54"/>
</g>
<!-- 7&#45;&gt;6 -->
<g id="edge8" class="edge">
<title>7&#45;&gt;6</title>
<path fill="none" stroke="grey" stroke-width="2" d="M76,-503.34C76,-496.75 76,-489.08 76,-481.67"/>
<polygon fill="grey" stroke="grey" stroke-width="2" points="79.5,-481.9 76,-471.9 72.5,-481.9 79.5,-481.9"/>
</g>
<!-- 8&#45;&gt;1 -->
<g id="edge3" class="edge">
<title>8&#45;&gt;1</title>
<path fill="none" stroke="grey" stroke-width="2" d="M60.18,-143.34C57.12,-136.43 53.52,-128.31 50.09,-120.56"/>
<polygon fill="grey" stroke="grey" stroke-width="2" points="53.18,-118.63 45.93,-110.9 46.78,-121.46 53.18,-118.63"/>
</g>
<!-- 9 -->
<g id="node10" class="node">
<title>9</title>
<path fill="none" stroke="#d8cb56" stroke-width="2" stroke-dasharray="1,5" d="M148.38,-252C148.38,-252 83.62,-252 83.62,-252 77.62,-252 71.62,-246 71.62,-240 71.62,-240 71.62,-228 71.62,-228 71.62,-222 77.62,-216 83.62,-216 83.62,-216 148.38,-216 148.38,-216 154.38,-216 160.38,-222 160.38,-228 160.38,-228 160.38,-240 160.38,-240 160.38,-246 154.38,-252 148.38,-252"/>
<text text-anchor="middle" x="116" y="-230.12" font-family="sans" font-size="10.00">megatree_pruner</text>
</g>
<!-- 9&#45;&gt;8 -->
<g id="edge11" class="edge">
<title>9&#45;&gt;8</title>
<path fill="none" stroke="grey" stroke-width="2" d="M103.89,-215.34C98.92,-208.1 93.05,-199.53 87.51,-191.45"/>
<polygon fill="grey" stroke="grey" stroke-width="2" points="89.82,-189.17 81.28,-182.9 84.04,-193.13 89.82,-189.17"/>
</g>
<!-- 10 -->
<g id="node11" class="node">
<title>10</title>
<path fill="none" stroke="#68d856" stroke-width="2" stroke-dasharray="5,2" d="M232,-324C232,-324 168,-324 168,-324 162,-324 156,-318 156,-312 156,-312 156,-300 156,-300 156,-294 162,-288 168,-288 168,-288 232,-288 232,-288 238,-288 244,-294 244,-300 244,-300 244,-312 244,-312 244,-318 238,-324 232,-324"/>
<text text-anchor="middle" x="200" y="-302.12" font-family="sans" font-size="10.00">megatree_loader</text>
</g>
<!-- 10&#45;&gt;9 -->
<g id="edge12" class="edge">
<title>10&#45;&gt;9</title>
<path fill="none" stroke="grey" stroke-width="2" d="M178.8,-287.34C169.23,-279.36 157.72,-269.77 147.19,-260.99"/>
<polygon fill="grey" stroke="grey" stroke-width="2" points="149.41,-257.61 139.48,-253.9 144.92,-262.99 149.41,-257.61"/>
</g>
<!-- 11 -->
<g id="node12" class="node">
<title>11</title>
<path fill="none" stroke="#56d892" stroke-width="2" stroke-dasharray="5,2" d="M233.12,-396C233.12,-396 166.88,-396 166.88,-396 160.88,-396 154.88,-390 154.88,-384 154.88,-384 154.88,-372 154.88,-372 154.88,-366 160.88,-360 166.88,-360 166.88,-360 233.12,-360 233.12,-360 239.12,-360 245.12,-366 245.12,-372 245.12,-372 245.12,-384 245.12,-384 245.12,-390 239.12,-396 233.12,-396"/>
<text text-anchor="middle" x="200" y="-374.12" font-family="sans" font-size="10.00">get_opentree_zip</text>
</g>
<!-- 11&#45;&gt;10 -->
<g id="edge14" class="edge">
<title>11&#45;&gt;10</title>
<path fill="none" stroke="grey" stroke-width="2" d="M200,-359.34C200,-352.75 200,-345.08 200,-337.67"/>
<polygon fill="grey" stroke="grey" stroke-width="2" points="203.5,-337.9 200,-327.9 196.5,-337.9 203.5,-337.9"/>
</g>
<!-- 12&#45;&gt;9 -->
<g id="edge13" class="edge">
<title>12&#45;&gt;9</title>
<path fill="none" stroke="grey" stroke-width="2" d="M107.78,-287.34C108.81,-280.75 110.02,-273.08 111.18,-265.67"/>
<polygon fill="grey" stroke="grey" stroke-width="2" points="115.09,-265.32 113.19,-254.9 108.18,-264.24 115.09,-265.32"/>
</g>
</g>
</svg>
