<?xml version="1.0" encoding="UTF-8" standalone="no"?>
<!DOCTYPE svg PUBLIC "-//W3C//DTD SVG 1.1//EN"
 "http://www.w3.org/Graphics/SVG/1.1/DTD/svg11.dtd">
<!-- Generated by graphviz version 8.0.5 (0)
 -->
<!-- Title: snakemake_dag Pages: 1 -->
<svg width="4115pt" height="476pt"
 viewBox="0.00 0.00 4115.38 476.00" xmlns="http://www.w3.org/2000/svg" xmlns:xlink="http://www.w3.org/1999/xlink">
<g id="graph0" class="graph" transform="scale(1 1) rotate(0) translate(4 472)">
<title>snakemake_dag</title>
<polygon fill="white" stroke="none" points="-4,4 -4,-472 4111.38,-472 4111.38,4 -4,4"/>
<!-- 0 -->
<g id="node1" class="node">
<title>0</title>
<path fill="none" stroke="#d85656" stroke-width="2" stroke-dasharray="5,2" d="M2028.38,-36C2028.38,-36 1998.38,-36 1998.38,-36 1992.38,-36 1986.38,-30 1986.38,-24 1986.38,-24 1986.38,-12 1986.38,-12 1986.38,-6 1992.38,0 1998.38,0 1998.38,0 2028.38,0 2028.38,0 2034.38,0 2040.38,-6 2040.38,-12 2040.38,-12 2040.38,-24 2040.38,-24 2040.38,-30 2034.38,-36 2028.38,-36"/>
<text text-anchor="middle" x="2013.38" y="-14.12" font-family="sans" font-size="10.00">all</text>
</g>
<!-- 1 -->
<g id="node2" class="node">
<title>1</title>
<path fill="none" stroke="#70d856" stroke-width="2" stroke-dasharray="5,2" d="M2028.88,-108C2028.88,-108 1997.88,-108 1997.88,-108 1991.88,-108 1985.88,-102 1985.88,-96 1985.88,-96 1985.88,-84 1985.88,-84 1985.88,-78 1991.88,-72 1997.88,-72 1997.88,-72 2028.88,-72 2028.88,-72 2034.88,-72 2040.88,-78 2040.88,-84 2040.88,-84 2040.88,-96 2040.88,-96 2040.88,-102 2034.88,-108 2028.88,-108"/>
<text text-anchor="middle" x="2013.38" y="-86.12" font-family="sans" font-size="10.00">final_rule</text>
</g>
<!-- 1&#45;&gt;0 -->
<g id="edge1" class="edge">
<title>1&#45;&gt;0</title>
<path fill="none" stroke="grey" stroke-width="2" d="M2013.38,-71.34C2013.38,-64.75 2013.38,-57.08 2013.38,-49.67"/>
<polygon fill="grey" stroke="grey" stroke-width="2" points="2016.88,-49.9 2013.38,-39.9 2009.88,-49.9 2016.88,-49.9"/>
</g>
<!-- 2 -->
<g id="node3" class="node">
<title>2</title>
<path fill="none" stroke="#d8cb56" stroke-width="2" stroke-dasharray="5,2" d="M189.38,-180C189.38,-180 149.38,-180 149.38,-180 143.38,-180 137.38,-174 137.38,-168 137.38,-168 137.38,-156 137.38,-156 137.38,-150 143.38,-144 149.38,-144 149.38,-144 189.38,-144 189.38,-144 195.38,-144 201.38,-150 201.38,-156 201.38,-156 201.38,-168 201.38,-168 201.38,-174 195.38,-180 189.38,-180"/>
<text text-anchor="middle" x="169.38" y="-158.12" font-family="sans" font-size="10.00">prep_raxml</text>
</g>
<!-- 2&#45;&gt;1 -->
<g id="edge2" class="edge">
<title>2&#45;&gt;1</title>
<path fill="none" stroke="grey" stroke-width="2" d="M202.1,-157.63C241.16,-153.74 308.46,-147.43 366.38,-144 1005.44,-106.17 1785.72,-93.98 1972.03,-91.51"/>
<polygon fill="grey" stroke="grey" stroke-width="2" points="1971.94,-94.97 1981.89,-91.34 1971.85,-87.97 1971.94,-94.97"/>
</g>
<!-- 3 -->
<g id="node4" class="node">
<title>3</title>
<path fill="none" stroke="#d88d56" stroke-width="2" stroke-dasharray="5,2" d="M88.75,-252C88.75,-252 12,-252 12,-252 6,-252 0,-246 0,-240 0,-240 0,-228 0,-228 0,-222 6,-216 12,-216 12,-216 88.75,-216 88.75,-216 94.75,-216 100.75,-222 100.75,-228 100.75,-228 100.75,-240 100.75,-240 100.75,-246 94.75,-252 88.75,-252"/>
<text text-anchor="middle" x="50.38" y="-235.75" font-family="sans" font-size="10.00">msa_hmm</text>
<text text-anchor="middle" x="50.38" y="-224.5" font-family="sans" font-size="10.00">scatteritem: 1&#45;of&#45;17</text>
</g>
<!-- 3&#45;&gt;2 -->
<g id="edge19" class="edge">
<title>3&#45;&gt;2</title>
<path fill="none" stroke="grey" stroke-width="2" d="M80.71,-215.15C95.12,-206.68 112.56,-196.42 128.14,-187.25"/>
<polygon fill="grey" stroke="grey" stroke-width="2" points="130.25,-189.9 137.09,-181.81 126.7,-183.87 130.25,-189.9"/>
</g>
<!-- 4 -->
<g id="node5" class="node">
<title>4</title>
<path fill="none" stroke="#56c9d8" stroke-width="2" stroke-dasharray="5,2" d="M2036,-324C2036,-324 1990.75,-324 1990.75,-324 1984.75,-324 1978.75,-318 1978.75,-312 1978.75,-312 1978.75,-300 1978.75,-300 1978.75,-294 1984.75,-288 1990.75,-288 1990.75,-288 2036,-288 2036,-288 2042,-288 2048,-294 2048,-300 2048,-300 2048,-312 2048,-312 2048,-318 2042,-324 2036,-324"/>
<text text-anchor="middle" x="2013.38" y="-302.12" font-family="sans" font-size="10.00">family_fasta</text>
</g>
<!-- 4&#45;&gt;3 -->
<g id="edge21" class="edge">
<title>4&#45;&gt;3</title>
<path fill="none" stroke="grey" stroke-width="2" d="M1977.81,-305.21C1752.21,-306.38 517.11,-310.08 114.4,-252.31"/>
<polygon fill="grey" stroke="grey" stroke-width="2" points="113.98,-248.42 103.58,-250.41 112.95,-255.34 113.98,-248.42"/>
</g>
<!-- 7 -->
<g id="node8" class="node">
<title>7</title>
<path fill="none" stroke="#5692d8" stroke-width="2" stroke-dasharray="5,2" d="M207.75,-252C207.75,-252 131,-252 131,-252 125,-252 119,-246 119,-240 119,-240 119,-228 119,-228 119,-222 125,-216 131,-216 131,-216 207.75,-216 207.75,-216 213.75,-216 219.75,-222 219.75,-228 219.75,-228 219.75,-240 219.75,-240 219.75,-246 213.75,-252 207.75,-252"/>
<text text-anchor="middle" x="169.38" y="-235.75" font-family="sans" font-size="10.00">family_constraint</text>
<text text-anchor="middle" x="169.38" y="-224.5" font-family="sans" font-size="10.00">scatteritem: 1&#45;of&#45;17</text>
</g>
<!-- 4&#45;&gt;7 -->
<g id="edge24" class="edge">
<title>4&#45;&gt;7</title>
<path fill="none" stroke="grey" stroke-width="2" d="M1977.94,-305.14C1761.14,-305.79 611.06,-306.66 233.41,-252.32"/>
<polygon fill="grey" stroke="grey" stroke-width="2" points="232.99,-248.42 222.58,-250.4 231.95,-255.34 232.99,-248.42"/>
</g>
<!-- 9 -->
<g id="node10" class="node">
<title>9</title>
<path fill="none" stroke="#d88d56" stroke-width="2" stroke-dasharray="5,2" d="M326.75,-252C326.75,-252 250,-252 250,-252 244,-252 238,-246 238,-240 238,-240 238,-228 238,-228 238,-222 244,-216 250,-216 250,-216 326.75,-216 326.75,-216 332.75,-216 338.75,-222 338.75,-228 338.75,-228 338.75,-240 338.75,-240 338.75,-246 332.75,-252 326.75,-252"/>
<text text-anchor="middle" x="288.38" y="-235.75" font-family="sans" font-size="10.00">msa_hmm</text>
<text text-anchor="middle" x="288.38" y="-224.5" font-family="sans" font-size="10.00">scatteritem: 2&#45;of&#45;17</text>
</g>
<!-- 4&#45;&gt;9 -->
<g id="edge27" class="edge">
<title>4&#45;&gt;9</title>
<path fill="none" stroke="grey" stroke-width="2" d="M1977.94,-305.05C1769.92,-305.16 704.74,-303.24 352.32,-252.31"/>
<polygon fill="grey" stroke="grey" stroke-width="2" points="351.99,-248.42 341.58,-250.4 350.95,-255.34 351.99,-248.42"/>
</g>
<!-- 10 -->
<g id="node11" class="node">
<title>10</title>
<path fill="none" stroke="#5692d8" stroke-width="2" stroke-dasharray="5,2" d="M445.75,-252C445.75,-252 369,-252 369,-252 363,-252 357,-246 357,-240 357,-240 357,-228 357,-228 357,-222 363,-216 369,-216 369,-216 445.75,-216 445.75,-216 451.75,-216 457.75,-222 457.75,-228 457.75,-228 457.75,-240 457.75,-240 457.75,-246 451.75,-252 445.75,-252"/>
<text text-anchor="middle" x="407.38" y="-235.75" font-family="sans" font-size="10.00">family_constraint</text>
<text text-anchor="middle" x="407.38" y="-224.5" font-family="sans" font-size="10.00">scatteritem: 2&#45;of&#45;17</text>
</g>
<!-- 4&#45;&gt;10 -->
<g id="edge28" class="edge">
<title>4&#45;&gt;10</title>
<path fill="none" stroke="grey" stroke-width="2" d="M1977.89,-304.95C1778.84,-304.48 798.67,-299.83 471.35,-252.32"/>
<polygon fill="grey" stroke="grey" stroke-width="2" points="470.99,-248.42 460.58,-250.39 469.95,-255.34 470.99,-248.42"/>
</g>
<!-- 12 -->
<g id="node13" class="node">
<title>12</title>
<path fill="none" stroke="#d88d56" stroke-width="2" stroke-dasharray="5,2" d="M564.75,-252C564.75,-252 488,-252 488,-252 482,-252 476,-246 476,-240 476,-240 476,-228 476,-228 476,-222 482,-216 488,-216 488,-216 564.75,-216 564.75,-216 570.75,-216 576.75,-222 576.75,-228 576.75,-228 576.75,-240 576.75,-240 576.75,-246 570.75,-252 564.75,-252"/>
<text text-anchor="middle" x="526.38" y="-235.75" font-family="sans" font-size="10.00">msa_hmm</text>
<text text-anchor="middle" x="526.38" y="-224.5" font-family="sans" font-size="10.00">scatteritem: 3&#45;of&#45;17</text>
</g>
<!-- 4&#45;&gt;12 -->
<g id="edge31" class="edge">
<title>4&#45;&gt;12</title>
<path fill="none" stroke="grey" stroke-width="2" d="M1977.83,-304.83C1788.1,-303.75 892.33,-296.44 590.23,-252.3"/>
<polygon fill="grey" stroke="grey" stroke-width="2" points="589.99,-248.42 579.58,-250.38 588.94,-255.34 589.99,-248.42"/>
</g>
<!-- 13 -->
<g id="node14" class="node">
<title>13</title>
<path fill="none" stroke="#5692d8" stroke-width="2" stroke-dasharray="5,2" d="M683.75,-252C683.75,-252 607,-252 607,-252 601,-252 595,-246 595,-240 595,-240 595,-228 595,-228 595,-222 601,-216 607,-216 607,-216 683.75,-216 683.75,-216 689.75,-216 695.75,-222 695.75,-228 695.75,-228 695.75,-240 695.75,-240 695.75,-246 689.75,-252 683.75,-252"/>
<text text-anchor="middle" x="645.38" y="-235.75" font-family="sans" font-size="10.00">family_constraint</text>
<text text-anchor="middle" x="645.38" y="-224.5" font-family="sans" font-size="10.00">scatteritem: 3&#45;of&#45;17</text>
</g>
<!-- 4&#45;&gt;13 -->
<g id="edge32" class="edge">
<title>4&#45;&gt;13</title>
<path fill="none" stroke="grey" stroke-width="2" d="M1977.84,-304.69C1798.05,-302.96 986.58,-293.07 709.38,-252.33"/>
<polygon fill="grey" stroke="grey" stroke-width="2" points="709,-248.42 698.58,-250.37 707.94,-255.34 709,-248.42"/>
</g>
<!-- 15 -->
<g id="node16" class="node">
<title>15</title>
<path fill="none" stroke="#d88d56" stroke-width="2" stroke-dasharray="5,2" d="M802.75,-252C802.75,-252 726,-252 726,-252 720,-252 714,-246 714,-240 714,-240 714,-228 714,-228 714,-222 720,-216 726,-216 726,-216 802.75,-216 802.75,-216 808.75,-216 814.75,-222 814.75,-228 814.75,-228 814.75,-240 814.75,-240 814.75,-246 808.75,-252 802.75,-252"/>
<text text-anchor="middle" x="764.38" y="-235.75" font-family="sans" font-size="10.00">msa_hmm</text>
<text text-anchor="middle" x="764.38" y="-224.5" font-family="sans" font-size="10.00">scatteritem: 4&#45;of&#45;17</text>
</g>
<!-- 4&#45;&gt;15 -->
<g id="edge35" class="edge">
<title>4&#45;&gt;15</title>
<path fill="none" stroke="grey" stroke-width="2" d="M1978,-304.53C1808.83,-302.1 1080.49,-289.73 828.3,-252.33"/>
<polygon fill="grey" stroke="grey" stroke-width="2" points="828,-248.43 817.59,-250.35 826.93,-255.34 828,-248.43"/>
</g>
<!-- 16 -->
<g id="node17" class="node">
<title>16</title>
<path fill="none" stroke="#5692d8" stroke-width="2" stroke-dasharray="5,2" d="M921.75,-252C921.75,-252 845,-252 845,-252 839,-252 833,-246 833,-240 833,-240 833,-228 833,-228 833,-222 839,-216 845,-216 845,-216 921.75,-216 921.75,-216 927.75,-216 933.75,-222 933.75,-228 933.75,-228 933.75,-240 933.75,-240 933.75,-246 927.75,-252 921.75,-252"/>
<text text-anchor="middle" x="883.38" y="-235.75" font-family="sans" font-size="10.00">family_constraint</text>
<text text-anchor="middle" x="883.38" y="-224.5" font-family="sans" font-size="10.00">scatteritem: 4&#45;of&#45;17</text>
</g>
<!-- 4&#45;&gt;16 -->
<g id="edge36" class="edge">
<title>4&#45;&gt;16</title>
<path fill="none" stroke="grey" stroke-width="2" d="M1977.85,-304.32C1819.29,-301.13 1174.49,-286.4 947.34,-252.34"/>
<polygon fill="grey" stroke="grey" stroke-width="2" points="947.01,-248.43 936.59,-250.34 945.92,-255.35 947.01,-248.43"/>
</g>
<!-- 18 -->
<g id="node19" class="node">
<title>18</title>
<path fill="none" stroke="#d88d56" stroke-width="2" stroke-dasharray="5,2" d="M1040.75,-252C1040.75,-252 964,-252 964,-252 958,-252 952,-246 952,-240 952,-240 952,-228 952,-228 952,-222 958,-216 964,-216 964,-216 1040.75,-216 1040.75,-216 1046.75,-216 1052.75,-222 1052.75,-228 1052.75,-228 1052.75,-240 1052.75,-240 1052.75,-246 1046.75,-252 1040.75,-252"/>
<text text-anchor="middle" x="1002.38" y="-235.75" font-family="sans" font-size="10.00">msa_hmm</text>
<text text-anchor="middle" x="1002.38" y="-224.5" font-family="sans" font-size="10.00">scatteritem: 5&#45;of&#45;17</text>
</g>
<!-- 4&#45;&gt;18 -->
<g id="edge39" class="edge">
<title>4&#45;&gt;18</title>
<path fill="none" stroke="grey" stroke-width="2" d="M1977.85,-304.07C1830.82,-300.06 1268.6,-283.11 1066.38,-252.36"/>
<polygon fill="grey" stroke="grey" stroke-width="2" points="1066.02,-248.44 1055.59,-250.31 1064.91,-255.35 1066.02,-248.44"/>
</g>
<!-- 19 -->
<g id="node20" class="node">
<title>19</title>
<path fill="none" stroke="#5692d8" stroke-width="2" stroke-dasharray="5,2" d="M1159.75,-252C1159.75,-252 1083,-252 1083,-252 1077,-252 1071,-246 1071,-240 1071,-240 1071,-228 1071,-228 1071,-222 1077,-216 1083,-216 1083,-216 1159.75,-216 1159.75,-216 1165.75,-216 1171.75,-222 1171.75,-228 1171.75,-228 1171.75,-240 1171.75,-240 1171.75,-246 1165.75,-252 1159.75,-252"/>
<text text-anchor="middle" x="1121.38" y="-235.75" font-family="sans" font-size="10.00">family_constraint</text>
<text text-anchor="middle" x="1121.38" y="-224.5" font-family="sans" font-size="10.00">scatteritem: 5&#45;of&#45;17</text>
</g>
<!-- 4&#45;&gt;19 -->
<g id="edge40" class="edge">
<title>4&#45;&gt;19</title>
<path fill="none" stroke="grey" stroke-width="2" d="M1977.79,-305.42C1863.59,-306.2 1496.16,-304.35 1185.04,-252.4"/>
<polygon fill="grey" stroke="grey" stroke-width="2" points="1185.04,-248.51 1174.6,-250.29 1183.87,-255.41 1185.04,-248.51"/>
</g>
<!-- 21 -->
<g id="node22" class="node">
<title>21</title>
<path fill="none" stroke="#d88d56" stroke-width="2" stroke-dasharray="5,2" d="M1278.75,-252C1278.75,-252 1202,-252 1202,-252 1196,-252 1190,-246 1190,-240 1190,-240 1190,-228 1190,-228 1190,-222 1196,-216 1202,-216 1202,-216 1278.75,-216 1278.75,-216 1284.75,-216 1290.75,-222 1290.75,-228 1290.75,-228 1290.75,-240 1290.75,-240 1290.75,-246 1284.75,-252 1278.75,-252"/>
<text text-anchor="middle" x="1240.38" y="-235.75" font-family="sans" font-size="10.00">msa_hmm</text>
<text text-anchor="middle" x="1240.38" y="-224.5" font-family="sans" font-size="10.00">scatteritem: 6&#45;of&#45;17</text>
</g>
<!-- 4&#45;&gt;21 -->
<g id="edge43" class="edge">
<title>4&#45;&gt;21</title>
<path fill="none" stroke="grey" stroke-width="2" d="M1977.82,-304.88C1874.79,-304.02 1567.17,-297.68 1304.1,-252.43"/>
<polygon fill="grey" stroke="grey" stroke-width="2" points="1304.06,-248.52 1293.6,-250.25 1302.85,-255.42 1304.06,-248.52"/>
</g>
<!-- 22 -->
<g id="node23" class="node">
<title>22</title>
<path fill="none" stroke="#5692d8" stroke-width="2" stroke-dasharray="5,2" d="M1397.75,-252C1397.75,-252 1321,-252 1321,-252 1315,-252 1309,-246 1309,-240 1309,-240 1309,-228 1309,-228 1309,-222 1315,-216 1321,-216 1321,-216 1397.75,-216 1397.75,-216 1403.75,-216 1409.75,-222 1409.75,-228 1409.75,-228 1409.75,-240 1409.75,-240 1409.75,-246 1403.75,-252 1397.75,-252"/>
<text text-anchor="middle" x="1359.38" y="-235.75" font-family="sans" font-size="10.00">family_constraint</text>
<text text-anchor="middle" x="1359.38" y="-224.5" font-family="sans" font-size="10.00">scatteritem: 6&#45;of&#45;17</text>
</g>
<!-- 4&#45;&gt;22 -->
<g id="edge44" class="edge">
<title>4&#45;&gt;22</title>
<path fill="none" stroke="grey" stroke-width="2" d="M1977.91,-304.15C1887.07,-301.47 1638.57,-291.08 1423.12,-252.48"/>
<polygon fill="grey" stroke="grey" stroke-width="2" points="1423.08,-248.55 1412.61,-250.2 1421.82,-255.44 1423.08,-248.55"/>
</g>
<!-- 24 -->
<g id="node25" class="node">
<title>24</title>
<path fill="none" stroke="#d88d56" stroke-width="2" stroke-dasharray="5,2" d="M1516.75,-252C1516.75,-252 1440,-252 1440,-252 1434,-252 1428,-246 1428,-240 1428,-240 1428,-228 1428,-228 1428,-222 1434,-216 1440,-216 1440,-216 1516.75,-216 1516.75,-216 1522.75,-216 1528.75,-222 1528.75,-228 1528.75,-228 1528.75,-240 1528.75,-240 1528.75,-246 1522.75,-252 1516.75,-252"/>
<text text-anchor="middle" x="1478.38" y="-235.75" font-family="sans" font-size="10.00">msa_hmm</text>
<text text-anchor="middle" x="1478.38" y="-224.5" font-family="sans" font-size="10.00">scatteritem: 7&#45;of&#45;17</text>
</g>
<!-- 4&#45;&gt;24 -->
<g id="edge47" class="edge">
<title>4&#45;&gt;24</title>
<path fill="none" stroke="grey" stroke-width="2" d="M1977.91,-303.05C1900.49,-298.36 1710.41,-284.55 1542.21,-252.56"/>
<polygon fill="grey" stroke="grey" stroke-width="2" points="1542.11,-248.59 1531.63,-250.12 1540.78,-255.46 1542.11,-248.59"/>
</g>
<!-- 25 -->
<g id="node26" class="node">
<title>25</title>
<path fill="none" stroke="#5692d8" stroke-width="2" stroke-dasharray="5,2" d="M1635.75,-252C1635.75,-252 1559,-252 1559,-252 1553,-252 1547,-246 1547,-240 1547,-240 1547,-228 1547,-228 1547,-222 1553,-216 1559,-216 1559,-216 1635.75,-216 1635.75,-216 1641.75,-216 1647.75,-222 1647.75,-228 1647.75,-228 1647.75,-240 1647.75,-240 1647.75,-246 1641.75,-252 1635.75,-252"/>
<text text-anchor="middle" x="1597.38" y="-235.75" font-family="sans" font-size="10.00">family_constraint</text>
<text text-anchor="middle" x="1597.38" y="-224.5" font-family="sans" font-size="10.00">scatteritem: 7&#45;of&#45;17</text>
</g>
<!-- 4&#45;&gt;25 -->
<g id="edge48" class="edge">
<title>4&#45;&gt;25</title>
<path fill="none" stroke="grey" stroke-width="2" d="M1977.99,-301.26C1915.83,-294.35 1782.82,-278.13 1661.15,-252.65"/>
<polygon fill="grey" stroke="grey" stroke-width="2" points="1661.16,-248.65 1650.65,-250 1659.71,-255.5 1661.16,-248.65"/>
</g>
<!-- 27 -->
<g id="node28" class="node">
<title>27</title>
<path fill="none" stroke="#d88d56" stroke-width="2" stroke-dasharray="5,2" d="M1754.75,-252C1754.75,-252 1678,-252 1678,-252 1672,-252 1666,-246 1666,-240 1666,-240 1666,-228 1666,-228 1666,-222 1672,-216 1678,-216 1678,-216 1754.75,-216 1754.75,-216 1760.75,-216 1766.75,-222 1766.75,-228 1766.75,-228 1766.75,-240 1766.75,-240 1766.75,-246 1760.75,-252 1754.75,-252"/>
<text text-anchor="middle" x="1716.38" y="-235.75" font-family="sans" font-size="10.00">msa_hmm</text>
<text text-anchor="middle" x="1716.38" y="-224.5" font-family="sans" font-size="10.00">scatteritem: 8&#45;of&#45;17</text>
</g>
<!-- 4&#45;&gt;27 -->
<g id="edge51" class="edge">
<title>4&#45;&gt;27</title>
<path fill="none" stroke="grey" stroke-width="2" d="M1977.89,-297.71C1933.78,-288.52 1855.92,-271.82 1779.89,-252.82"/>
<polygon fill="grey" stroke="grey" stroke-width="2" points="1780.26,-248.8 1769.71,-249.75 1778.55,-255.59 1780.26,-248.8"/>
</g>
<!-- 28 -->
<g id="node29" class="node">
<title>28</title>
<path fill="none" stroke="#5692d8" stroke-width="2" stroke-dasharray="5,2" d="M1873.75,-252C1873.75,-252 1797,-252 1797,-252 1791,-252 1785,-246 1785,-240 1785,-240 1785,-228 1785,-228 1785,-222 1791,-216 1797,-216 1797,-216 1873.75,-216 1873.75,-216 1879.75,-216 1885.75,-222 1885.75,-228 1885.75,-228 1885.75,-240 1885.75,-240 1885.75,-246 1879.75,-252 1873.75,-252"/>
<text text-anchor="middle" x="1835.38" y="-235.75" font-family="sans" font-size="10.00">family_constraint</text>
<text text-anchor="middle" x="1835.38" y="-224.5" font-family="sans" font-size="10.00">scatteritem: 8&#45;of&#45;17</text>
</g>
<!-- 4&#45;&gt;28 -->
<g id="edge52" class="edge">
<title>4&#45;&gt;28</title>
<path fill="none" stroke="grey" stroke-width="2" d="M1977.78,-291C1953.57,-281.48 1920.98,-268.67 1893.09,-257.7"/>
<polygon fill="grey" stroke="grey" stroke-width="2" points="1893.65,-254.37 1883.06,-253.97 1891.09,-260.88 1893.65,-254.37"/>
</g>
<!-- 30 -->
<g id="node31" class="node">
<title>30</title>
<path fill="none" stroke="#d88d56" stroke-width="2" stroke-dasharray="5,2" d="M1992.75,-252C1992.75,-252 1916,-252 1916,-252 1910,-252 1904,-246 1904,-240 1904,-240 1904,-228 1904,-228 1904,-222 1910,-216 1916,-216 1916,-216 1992.75,-216 1992.75,-216 1998.75,-216 2004.75,-222 2004.75,-228 2004.75,-228 2004.75,-240 2004.75,-240 2004.75,-246 1998.75,-252 1992.75,-252"/>
<text text-anchor="middle" x="1954.38" y="-235.75" font-family="sans" font-size="10.00">msa_hmm</text>
<text text-anchor="middle" x="1954.38" y="-224.5" font-family="sans" font-size="10.00">scatteritem: 9&#45;of&#45;17</text>
</g>
<!-- 4&#45;&gt;30 -->
<g id="edge55" class="edge">
<title>4&#45;&gt;30</title>
<path fill="none" stroke="grey" stroke-width="2" d="M1998.49,-287.34C1992.18,-279.85 1984.67,-270.95 1977.66,-262.63"/>
<polygon fill="grey" stroke="grey" stroke-width="2" points="1979.58,-260.29 1970.46,-254.9 1974.23,-264.8 1979.58,-260.29"/>
</g>
<!-- 31 -->
<g id="node32" class="node">
<title>31</title>
<path fill="none" stroke="#5692d8" stroke-width="2" stroke-dasharray="5,2" d="M2111.75,-252C2111.75,-252 2035,-252 2035,-252 2029,-252 2023,-246 2023,-240 2023,-240 2023,-228 2023,-228 2023,-222 2029,-216 2035,-216 2035,-216 2111.75,-216 2111.75,-216 2117.75,-216 2123.75,-222 2123.75,-228 2123.75,-228 2123.75,-240 2123.75,-240 2123.75,-246 2117.75,-252 2111.75,-252"/>
<text text-anchor="middle" x="2073.38" y="-235.75" font-family="sans" font-size="10.00">family_constraint</text>
<text text-anchor="middle" x="2073.38" y="-224.5" font-family="sans" font-size="10.00">scatteritem: 9&#45;of&#45;17</text>
</g>
<!-- 4&#45;&gt;31 -->
<g id="edge56" class="edge">
<title>4&#45;&gt;31</title>
<path fill="none" stroke="grey" stroke-width="2" d="M2028.52,-287.34C2034.93,-279.85 2042.56,-270.95 2049.69,-262.63"/>
<polygon fill="grey" stroke="grey" stroke-width="2" points="2053.18,-264.77 2057.03,-254.9 2047.87,-260.22 2053.18,-264.77"/>
</g>
<!-- 33 -->
<g id="node34" class="node">
<title>33</title>
<path fill="none" stroke="#d88d56" stroke-width="2" stroke-dasharray="5,2" d="M2235.38,-252C2235.38,-252 2153.38,-252 2153.38,-252 2147.38,-252 2141.38,-246 2141.38,-240 2141.38,-240 2141.38,-228 2141.38,-228 2141.38,-222 2147.38,-216 2153.38,-216 2153.38,-216 2235.38,-216 2235.38,-216 2241.38,-216 2247.38,-222 2247.38,-228 2247.38,-228 2247.38,-240 2247.38,-240 2247.38,-246 2241.38,-252 2235.38,-252"/>
<text text-anchor="middle" x="2194.38" y="-235.75" font-family="sans" font-size="10.00">msa_hmm</text>
<text text-anchor="middle" x="2194.38" y="-224.5" font-family="sans" font-size="10.00">scatteritem: 10&#45;of&#45;17</text>
</g>
<!-- 4&#45;&gt;33 -->
<g id="edge59" class="edge">
<title>4&#45;&gt;33</title>
<path fill="none" stroke="grey" stroke-width="2" d="M2048.7,-291.34C2073.55,-281.73 2107.37,-268.65 2136.16,-257.51"/>
<polygon fill="grey" stroke="grey" stroke-width="2" points="2138.09,-260.75 2146.16,-253.87 2135.57,-254.22 2138.09,-260.75"/>
</g>
<!-- 34 -->
<g id="node35" class="node">
<title>34</title>
<path fill="none" stroke="#5692d8" stroke-width="2" stroke-dasharray="5,2" d="M2359.38,-252C2359.38,-252 2277.38,-252 2277.38,-252 2271.38,-252 2265.38,-246 2265.38,-240 2265.38,-240 2265.38,-228 2265.38,-228 2265.38,-222 2271.38,-216 2277.38,-216 2277.38,-216 2359.38,-216 2359.38,-216 2365.38,-216 2371.38,-222 2371.38,-228 2371.38,-228 2371.38,-240 2371.38,-240 2371.38,-246 2365.38,-252 2359.38,-252"/>
<text text-anchor="middle" x="2318.38" y="-235.75" font-family="sans" font-size="10.00">family_constraint</text>
<text text-anchor="middle" x="2318.38" y="-224.5" font-family="sans" font-size="10.00">scatteritem: 10&#45;of&#45;17</text>
</g>
<!-- 4&#45;&gt;34 -->
<g id="edge60" class="edge">
<title>4&#45;&gt;34</title>
<path fill="none" stroke="grey" stroke-width="2" d="M2048.92,-297.86C2093.98,-288.68 2174.3,-271.87 2252.18,-252.97"/>
<polygon fill="grey" stroke="grey" stroke-width="2" points="2253.77,-255.69 2262.65,-249.92 2252.11,-248.89 2253.77,-255.69"/>
</g>
<!-- 36 -->
<g id="node37" class="node">
<title>36</title>
<path fill="none" stroke="#d88d56" stroke-width="2" stroke-dasharray="5,2" d="M2483.38,-252C2483.38,-252 2401.38,-252 2401.38,-252 2395.38,-252 2389.38,-246 2389.38,-240 2389.38,-240 2389.38,-228 2389.38,-228 2389.38,-222 2395.38,-216 2401.38,-216 2401.38,-216 2483.38,-216 2483.38,-216 2489.38,-216 2495.38,-222 2495.38,-228 2495.38,-228 2495.38,-240 2495.38,-240 2495.38,-246 2489.38,-252 2483.38,-252"/>
<text text-anchor="middle" x="2442.38" y="-235.75" font-family="sans" font-size="10.00">msa_hmm</text>
<text text-anchor="middle" x="2442.38" y="-224.5" font-family="sans" font-size="10.00">scatteritem: 11&#45;of&#45;17</text>
</g>
<!-- 4&#45;&gt;36 -->
<g id="edge63" class="edge">
<title>4&#45;&gt;36</title>
<path fill="none" stroke="grey" stroke-width="2" d="M2048.8,-301.37C2112.46,-294.52 2250.57,-278.22 2376.2,-252.73"/>
<polygon fill="grey" stroke="grey" stroke-width="2" points="2377.62,-255.6 2386.71,-250.15 2376.21,-248.74 2377.62,-255.6"/>
</g>
<!-- 37 -->
<g id="node38" class="node">
<title>37</title>
<path fill="none" stroke="#5692d8" stroke-width="2" stroke-dasharray="5,2" d="M2607.38,-252C2607.38,-252 2525.38,-252 2525.38,-252 2519.38,-252 2513.38,-246 2513.38,-240 2513.38,-240 2513.38,-228 2513.38,-228 2513.38,-222 2519.38,-216 2525.38,-216 2525.38,-216 2607.38,-216 2607.38,-216 2613.38,-216 2619.38,-222 2619.38,-228 2619.38,-228 2619.38,-240 2619.38,-240 2619.38,-246 2613.38,-252 2607.38,-252"/>
<text text-anchor="middle" x="2566.38" y="-235.75" font-family="sans" font-size="10.00">family_constraint</text>
<text text-anchor="middle" x="2566.38" y="-224.5" font-family="sans" font-size="10.00">scatteritem: 11&#45;of&#45;17</text>
</g>
<!-- 4&#45;&gt;37 -->
<g id="edge64" class="edge">
<title>4&#45;&gt;37</title>
<path fill="none" stroke="grey" stroke-width="2" d="M2048.79,-303.13C2128.02,-298.52 2325.72,-284.74 2499.65,-252.74"/>
<polygon fill="grey" stroke="grey" stroke-width="2" points="2501.21,-255.63 2510.39,-250.35 2499.92,-248.75 2501.21,-255.63"/>
</g>
<!-- 39 -->
<g id="node40" class="node">
<title>39</title>
<path fill="none" stroke="#d88d56" stroke-width="2" stroke-dasharray="5,2" d="M2731.38,-252C2731.38,-252 2649.38,-252 2649.38,-252 2643.38,-252 2637.38,-246 2637.38,-240 2637.38,-240 2637.38,-228 2637.38,-228 2637.38,-222 2643.38,-216 2649.38,-216 2649.38,-216 2731.38,-216 2731.38,-216 2737.38,-216 2743.38,-222 2743.38,-228 2743.38,-228 2743.38,-240 2743.38,-240 2743.38,-246 2737.38,-252 2731.38,-252"/>
<text text-anchor="middle" x="2690.38" y="-235.75" font-family="sans" font-size="10.00">msa_hmm</text>
<text text-anchor="middle" x="2690.38" y="-224.5" font-family="sans" font-size="10.00">scatteritem: 12&#45;of&#45;17</text>
</g>
<!-- 4&#45;&gt;39 -->
<g id="edge67" class="edge">
<title>4&#45;&gt;39</title>
<path fill="none" stroke="grey" stroke-width="2" d="M2048.68,-304.2C2141.57,-301.61 2400.41,-291.36 2623.78,-252.65"/>
<polygon fill="grey" stroke="grey" stroke-width="2" points="2625.16,-255.6 2634.4,-250.42 2623.95,-248.71 2625.16,-255.6"/>
</g>
<!-- 40 -->
<g id="node41" class="node">
<title>40</title>
<path fill="none" stroke="#5692d8" stroke-width="2" stroke-dasharray="5,2" d="M2855.38,-252C2855.38,-252 2773.38,-252 2773.38,-252 2767.38,-252 2761.38,-246 2761.38,-240 2761.38,-240 2761.38,-228 2761.38,-228 2761.38,-222 2767.38,-216 2773.38,-216 2773.38,-216 2855.38,-216 2855.38,-216 2861.38,-216 2867.38,-222 2867.38,-228 2867.38,-228 2867.38,-240 2867.38,-240 2867.38,-246 2861.38,-252 2855.38,-252"/>
<text text-anchor="middle" x="2814.38" y="-235.75" font-family="sans" font-size="10.00">family_constraint</text>
<text text-anchor="middle" x="2814.38" y="-224.5" font-family="sans" font-size="10.00">scatteritem: 12&#45;of&#45;17</text>
</g>
<!-- 4&#45;&gt;40 -->
<g id="edge68" class="edge">
<title>4&#45;&gt;40</title>
<path fill="none" stroke="grey" stroke-width="2" d="M2048.67,-304.91C2153.9,-304.14 2474.64,-298.05 2747.85,-252.59"/>
<polygon fill="grey" stroke="grey" stroke-width="2" points="2749.14,-255.58 2758.41,-250.47 2747.97,-248.68 2749.14,-255.58"/>
</g>
<!-- 42 -->
<g id="node43" class="node">
<title>42</title>
<path fill="none" stroke="#d88d56" stroke-width="2" stroke-dasharray="5,2" d="M2979.38,-252C2979.38,-252 2897.38,-252 2897.38,-252 2891.38,-252 2885.38,-246 2885.38,-240 2885.38,-240 2885.38,-228 2885.38,-228 2885.38,-222 2891.38,-216 2897.38,-216 2897.38,-216 2979.38,-216 2979.38,-216 2985.38,-216 2991.38,-222 2991.38,-228 2991.38,-228 2991.38,-240 2991.38,-240 2991.38,-246 2985.38,-252 2979.38,-252"/>
<text text-anchor="middle" x="2938.38" y="-235.75" font-family="sans" font-size="10.00">msa_hmm</text>
<text text-anchor="middle" x="2938.38" y="-224.5" font-family="sans" font-size="10.00">scatteritem: 13&#45;of&#45;17</text>
</g>
<!-- 4&#45;&gt;42 -->
<g id="edge71" class="edge">
<title>4&#45;&gt;42</title>
<path fill="none" stroke="grey" stroke-width="2" d="M2048.6,-305.43C2165.1,-306.29 2548.46,-304.82 2871.97,-252.54"/>
<polygon fill="grey" stroke="grey" stroke-width="2" points="2873.12,-255.57 2882.42,-250.5 2871.98,-248.66 2873.12,-255.57"/>
</g>
<!-- 43 -->
<g id="node44" class="node">
<title>43</title>
<path fill="none" stroke="#5692d8" stroke-width="2" stroke-dasharray="5,2" d="M3103.38,-252C3103.38,-252 3021.38,-252 3021.38,-252 3015.38,-252 3009.38,-246 3009.38,-240 3009.38,-240 3009.38,-228 3009.38,-228 3009.38,-222 3015.38,-216 3021.38,-216 3021.38,-216 3103.38,-216 3103.38,-216 3109.38,-216 3115.38,-222 3115.38,-228 3115.38,-228 3115.38,-240 3115.38,-240 3115.38,-246 3109.38,-252 3103.38,-252"/>
<text text-anchor="middle" x="3062.38" y="-235.75" font-family="sans" font-size="10.00">family_constraint</text>
<text text-anchor="middle" x="3062.38" y="-224.5" font-family="sans" font-size="10.00">scatteritem: 13&#45;of&#45;17</text>
</g>
<!-- 4&#45;&gt;43 -->
<g id="edge72" class="edge">
<title>4&#45;&gt;43</title>
<path fill="none" stroke="grey" stroke-width="2" d="M2048.93,-304.11C2199.59,-300.19 2786.73,-283.31 2995.8,-252.48"/>
<polygon fill="grey" stroke="grey" stroke-width="2" points="2997.08,-255.51 3006.42,-250.52 2996,-248.6 2997.08,-255.51"/>
</g>
<!-- 45 -->
<g id="node46" class="node">
<title>45</title>
<path fill="none" stroke="#d88d56" stroke-width="2" stroke-dasharray="5,2" d="M3227.38,-252C3227.38,-252 3145.38,-252 3145.38,-252 3139.38,-252 3133.38,-246 3133.38,-240 3133.38,-240 3133.38,-228 3133.38,-228 3133.38,-222 3139.38,-216 3145.38,-216 3145.38,-216 3227.38,-216 3227.38,-216 3233.38,-216 3239.38,-222 3239.38,-228 3239.38,-228 3239.38,-240 3239.38,-240 3239.38,-246 3233.38,-252 3227.38,-252"/>
<text text-anchor="middle" x="3186.38" y="-235.75" font-family="sans" font-size="10.00">msa_hmm</text>
<text text-anchor="middle" x="3186.38" y="-224.5" font-family="sans" font-size="10.00">scatteritem: 14&#45;of&#45;17</text>
</g>
<!-- 4&#45;&gt;45 -->
<g id="edge75" class="edge">
<title>4&#45;&gt;45</title>
<path fill="none" stroke="grey" stroke-width="2" d="M2048.87,-304.36C2211.21,-301.26 2884.87,-286.65 3119.9,-252.45"/>
<polygon fill="grey" stroke="grey" stroke-width="2" points="3121.07,-255.51 3130.43,-250.54 3120.01,-248.59 3121.07,-255.51"/>
</g>
<!-- 46 -->
<g id="node47" class="node">
<title>46</title>
<path fill="none" stroke="#5692d8" stroke-width="2" stroke-dasharray="5,2" d="M3351.38,-252C3351.38,-252 3269.38,-252 3269.38,-252 3263.38,-252 3257.38,-246 3257.38,-240 3257.38,-240 3257.38,-228 3257.38,-228 3257.38,-222 3263.38,-216 3269.38,-216 3269.38,-216 3351.38,-216 3351.38,-216 3357.38,-216 3363.38,-222 3363.38,-228 3363.38,-228 3363.38,-240 3363.38,-240 3363.38,-246 3357.38,-252 3351.38,-252"/>
<text text-anchor="middle" x="3310.38" y="-235.75" font-family="sans" font-size="10.00">family_constraint</text>
<text text-anchor="middle" x="3310.38" y="-224.5" font-family="sans" font-size="10.00">scatteritem: 14&#45;of&#45;17</text>
</g>
<!-- 4&#45;&gt;46 -->
<g id="edge76" class="edge">
<title>4&#45;&gt;46</title>
<path fill="none" stroke="grey" stroke-width="2" d="M2048.94,-304.55C2222.47,-302.2 2982.3,-290.02 3243.62,-252.48"/>
<polygon fill="grey" stroke="grey" stroke-width="2" points="3245.06,-255.51 3254.43,-250.56 3244.02,-248.58 3245.06,-255.51"/>
</g>
<!-- 48 -->
<g id="node49" class="node">
<title>48</title>
<path fill="none" stroke="#d88d56" stroke-width="2" stroke-dasharray="5,2" d="M3475.38,-252C3475.38,-252 3393.38,-252 3393.38,-252 3387.38,-252 3381.38,-246 3381.38,-240 3381.38,-240 3381.38,-228 3381.38,-228 3381.38,-222 3387.38,-216 3393.38,-216 3393.38,-216 3475.38,-216 3475.38,-216 3481.38,-216 3487.38,-222 3487.38,-228 3487.38,-228 3487.38,-240 3487.38,-240 3487.38,-246 3481.38,-252 3475.38,-252"/>
<text text-anchor="middle" x="3434.38" y="-235.75" font-family="sans" font-size="10.00">msa_hmm</text>
<text text-anchor="middle" x="3434.38" y="-224.5" font-family="sans" font-size="10.00">scatteritem: 15&#45;of&#45;17</text>
</g>
<!-- 4&#45;&gt;48 -->
<g id="edge79" class="edge">
<title>4&#45;&gt;48</title>
<path fill="none" stroke="grey" stroke-width="2" d="M2048.74,-304.71C2232.43,-303.07 3080,-293.42 3367.57,-252.48"/>
<polygon fill="grey" stroke="grey" stroke-width="2" points="3369.05,-255.5 3378.43,-250.57 3368.02,-248.58 3369.05,-255.5"/>
</g>
<!-- 49 -->
<g id="node50" class="node">
<title>49</title>
<path fill="none" stroke="#5692d8" stroke-width="2" stroke-dasharray="5,2" d="M3599.38,-252C3599.38,-252 3517.38,-252 3517.38,-252 3511.38,-252 3505.38,-246 3505.38,-240 3505.38,-240 3505.38,-228 3505.38,-228 3505.38,-222 3511.38,-216 3517.38,-216 3517.38,-216 3599.38,-216 3599.38,-216 3605.38,-216 3611.38,-222 3611.38,-228 3611.38,-228 3611.38,-240 3611.38,-240 3611.38,-246 3605.38,-252 3599.38,-252"/>
<text text-anchor="middle" x="3558.38" y="-235.75" font-family="sans" font-size="10.00">family_constraint</text>
<text text-anchor="middle" x="3558.38" y="-224.5" font-family="sans" font-size="10.00">scatteritem: 15&#45;of&#45;17</text>
</g>
<!-- 4&#45;&gt;49 -->
<g id="edge80" class="edge">
<title>4&#45;&gt;49</title>
<path fill="none" stroke="grey" stroke-width="2" d="M2048.68,-304.85C2242.37,-303.85 3178.21,-296.84 3491.76,-252.45"/>
<polygon fill="grey" stroke="grey" stroke-width="2" points="3493.05,-255.5 3502.43,-250.58 3492.03,-248.58 3493.05,-255.5"/>
</g>
<!-- 51 -->
<g id="node52" class="node">
<title>51</title>
<path fill="none" stroke="#d88d56" stroke-width="2" stroke-dasharray="5,2" d="M3723.38,-252C3723.38,-252 3641.38,-252 3641.38,-252 3635.38,-252 3629.38,-246 3629.38,-240 3629.38,-240 3629.38,-228 3629.38,-228 3629.38,-222 3635.38,-216 3641.38,-216 3641.38,-216 3723.38,-216 3723.38,-216 3729.38,-216 3735.38,-222 3735.38,-228 3735.38,-228 3735.38,-240 3735.38,-240 3735.38,-246 3729.38,-252 3723.38,-252"/>
<text text-anchor="middle" x="3682.38" y="-235.75" font-family="sans" font-size="10.00">msa_hmm</text>
<text text-anchor="middle" x="3682.38" y="-224.5" font-family="sans" font-size="10.00">scatteritem: 16&#45;of&#45;17</text>
</g>
<!-- 4&#45;&gt;51 -->
<g id="edge83" class="edge">
<title>4&#45;&gt;51</title>
<path fill="none" stroke="grey" stroke-width="2" d="M2048.9,-304.96C2252.72,-304.56 3276.01,-300.25 3615.67,-252.46"/>
<polygon fill="grey" stroke="grey" stroke-width="2" points="3617.04,-255.5 3626.43,-250.59 3616.03,-248.58 3617.04,-255.5"/>
</g>
<!-- 52 -->
<g id="node53" class="node">
<title>52</title>
<path fill="none" stroke="#5692d8" stroke-width="2" stroke-dasharray="5,2" d="M3847.38,-252C3847.38,-252 3765.38,-252 3765.38,-252 3759.38,-252 3753.38,-246 3753.38,-240 3753.38,-240 3753.38,-228 3753.38,-228 3753.38,-222 3759.38,-216 3765.38,-216 3765.38,-216 3847.38,-216 3847.38,-216 3853.38,-216 3859.38,-222 3859.38,-228 3859.38,-228 3859.38,-240 3859.38,-240 3859.38,-246 3853.38,-252 3847.38,-252"/>
<text text-anchor="middle" x="3806.38" y="-235.75" font-family="sans" font-size="10.00">family_constraint</text>
<text text-anchor="middle" x="3806.38" y="-224.5" font-family="sans" font-size="10.00">scatteritem: 16&#45;of&#45;17</text>
</g>
<!-- 4&#45;&gt;52 -->
<g id="edge84" class="edge">
<title>4&#45;&gt;52</title>
<path fill="none" stroke="grey" stroke-width="2" d="M2048.8,-305.06C2261.68,-305.23 3373.9,-303.71 3739.74,-252.44"/>
<polygon fill="grey" stroke="grey" stroke-width="2" points="3741.04,-255.5 3750.43,-250.6 3740.03,-248.57 3741.04,-255.5"/>
</g>
<!-- 54 -->
<g id="node55" class="node">
<title>54</title>
<path fill="none" stroke="#d88d56" stroke-width="2" stroke-dasharray="5,2" d="M3971.38,-252C3971.38,-252 3889.38,-252 3889.38,-252 3883.38,-252 3877.38,-246 3877.38,-240 3877.38,-240 3877.38,-228 3877.38,-228 3877.38,-222 3883.38,-216 3889.38,-216 3889.38,-216 3971.38,-216 3971.38,-216 3977.38,-216 3983.38,-222 3983.38,-228 3983.38,-228 3983.38,-240 3983.38,-240 3983.38,-246 3977.38,-252 3971.38,-252"/>
<text text-anchor="middle" x="3930.38" y="-235.75" font-family="sans" font-size="10.00">msa_hmm</text>
<text text-anchor="middle" x="3930.38" y="-224.5" font-family="sans" font-size="10.00">scatteritem: 17&#45;of&#45;17</text>
</g>
<!-- 4&#45;&gt;54 -->
<g id="edge87" class="edge">
<title>4&#45;&gt;54</title>
<path fill="none" stroke="grey" stroke-width="2" d="M2048.76,-305.14C2270.48,-305.86 3471.53,-307.17 3863.67,-252.45"/>
<polygon fill="grey" stroke="grey" stroke-width="2" points="3865.04,-255.5 3874.44,-250.61 3864.04,-248.57 3865.04,-255.5"/>
</g>
<!-- 55 -->
<g id="node56" class="node">
<title>55</title>
<path fill="none" stroke="#5692d8" stroke-width="2" stroke-dasharray="5,2" d="M4095.38,-252C4095.38,-252 4013.38,-252 4013.38,-252 4007.38,-252 4001.38,-246 4001.38,-240 4001.38,-240 4001.38,-228 4001.38,-228 4001.38,-222 4007.38,-216 4013.38,-216 4013.38,-216 4095.38,-216 4095.38,-216 4101.38,-216 4107.38,-222 4107.38,-228 4107.38,-228 4107.38,-240 4107.38,-240 4107.38,-246 4101.38,-252 4095.38,-252"/>
<text text-anchor="middle" x="4054.38" y="-235.75" font-family="sans" font-size="10.00">family_constraint</text>
<text text-anchor="middle" x="4054.38" y="-224.5" font-family="sans" font-size="10.00">scatteritem: 17&#45;of&#45;17</text>
</g>
<!-- 4&#45;&gt;55 -->
<g id="edge88" class="edge">
<title>4&#45;&gt;55</title>
<path fill="none" stroke="grey" stroke-width="2" d="M2048.84,-305.22C2279.44,-306.44 3569.45,-310.64 3987.72,-252.44"/>
<polygon fill="grey" stroke="grey" stroke-width="2" points="3989.04,-255.5 3998.44,-250.61 3988.04,-248.57 3989.04,-255.5"/>
</g>
<!-- 5 -->
<g id="node6" class="node">
<title>5</title>
<path fill="none" stroke="#afd856" stroke-width="2" stroke-dasharray="5,2" d="M2037.12,-396C2037.12,-396 1989.62,-396 1989.62,-396 1983.62,-396 1977.62,-390 1977.62,-384 1977.62,-384 1977.62,-372 1977.62,-372 1977.62,-366 1983.62,-360 1989.62,-360 1989.62,-360 2037.12,-360 2037.12,-360 2043.12,-360 2049.12,-366 2049.12,-372 2049.12,-372 2049.12,-384 2049.12,-384 2049.12,-390 2043.12,-396 2037.12,-396"/>
<text text-anchor="middle" x="2013.38" y="-374.12" font-family="sans" font-size="10.00">map_opentol</text>
</g>
<!-- 5&#45;&gt;4 -->
<g id="edge22" class="edge">
<title>5&#45;&gt;4</title>
<path fill="none" stroke="grey" stroke-width="2" d="M2013.38,-359.34C2013.38,-352.75 2013.38,-345.08 2013.38,-337.67"/>
<polygon fill="grey" stroke="grey" stroke-width="2" points="2016.88,-337.9 2013.38,-327.9 2009.88,-337.9 2016.88,-337.9"/>
</g>
<!-- 6 -->
<g id="node7" class="node">
<title>6</title>
<path fill="none" stroke="#56d8a9" stroke-width="2" stroke-dasharray="5,2" d="M2045.38,-468C2045.38,-468 1981.38,-468 1981.38,-468 1975.38,-468 1969.38,-462 1969.38,-456 1969.38,-456 1969.38,-444 1969.38,-444 1969.38,-438 1975.38,-432 1981.38,-432 1981.38,-432 2045.38,-432 2045.38,-432 2051.38,-432 2057.38,-438 2057.38,-444 2057.38,-444 2057.38,-456 2057.38,-456 2057.38,-462 2051.38,-468 2045.38,-468"/>
<text text-anchor="middle" x="2013.38" y="-446.12" font-family="sans" font-size="10.00">create_database</text>
</g>
<!-- 6&#45;&gt;5 -->
<g id="edge23" class="edge">
<title>6&#45;&gt;5</title>
<path fill="none" stroke="grey" stroke-width="2" d="M2013.38,-431.34C2013.38,-424.75 2013.38,-417.08 2013.38,-409.67"/>
<polygon fill="grey" stroke="grey" stroke-width="2" points="2016.88,-409.9 2013.38,-399.9 2009.88,-409.9 2016.88,-409.9"/>
</g>
<!-- 7&#45;&gt;2 -->
<g id="edge20" class="edge">
<title>7&#45;&gt;2</title>
<path fill="none" stroke="grey" stroke-width="2" d="M169.38,-215.34C169.38,-208.75 169.38,-201.08 169.38,-193.67"/>
<polygon fill="grey" stroke="grey" stroke-width="2" points="172.88,-193.9 169.38,-183.9 165.88,-193.9 172.88,-193.9"/>
</g>
<!-- 8 -->
<g id="node9" class="node">
<title>8</title>
<path fill="none" stroke="#d8cb56" stroke-width="2" stroke-dasharray="5,2" d="M427.38,-180C427.38,-180 387.38,-180 387.38,-180 381.38,-180 375.38,-174 375.38,-168 375.38,-168 375.38,-156 375.38,-156 375.38,-150 381.38,-144 387.38,-144 387.38,-144 427.38,-144 427.38,-144 433.38,-144 439.38,-150 439.38,-156 439.38,-156 439.38,-168 439.38,-168 439.38,-174 433.38,-180 427.38,-180"/>
<text text-anchor="middle" x="407.38" y="-158.12" font-family="sans" font-size="10.00">prep_raxml</text>
</g>
<!-- 8&#45;&gt;1 -->
<g id="edge3" class="edge">
<title>8&#45;&gt;1</title>
<path fill="none" stroke="grey" stroke-width="2" d="M440.1,-157.69C479.16,-153.85 546.47,-147.59 604.38,-144 1144.69,-110.54 1802.96,-95.34 1972.18,-91.82"/>
<polygon fill="grey" stroke="grey" stroke-width="2" points="1972.14,-95.26 1982.06,-91.55 1971.99,-88.26 1972.14,-95.26"/>
</g>
<!-- 9&#45;&gt;8 -->
<g id="edge25" class="edge">
<title>9&#45;&gt;8</title>
<path fill="none" stroke="grey" stroke-width="2" d="M318.71,-215.15C333.12,-206.68 350.56,-196.42 366.14,-187.25"/>
<polygon fill="grey" stroke="grey" stroke-width="2" points="368.25,-189.9 375.09,-181.81 364.7,-183.87 368.25,-189.9"/>
</g>
<!-- 10&#45;&gt;8 -->
<g id="edge26" class="edge">
<title>10&#45;&gt;8</title>
<path fill="none" stroke="grey" stroke-width="2" d="M407.38,-215.34C407.38,-208.75 407.38,-201.08 407.38,-193.67"/>
<polygon fill="grey" stroke="grey" stroke-width="2" points="410.88,-193.9 407.38,-183.9 403.88,-193.9 410.88,-193.9"/>
</g>
<!-- 11 -->
<g id="node12" class="node">
<title>11</title>
<path fill="none" stroke="#d8cb56" stroke-width="2" stroke-dasharray="5,2" d="M665.38,-180C665.38,-180 625.38,-180 625.38,-180 619.38,-180 613.38,-174 613.38,-168 613.38,-168 613.38,-156 613.38,-156 613.38,-150 619.38,-144 625.38,-144 625.38,-144 665.38,-144 665.38,-144 671.38,-144 677.38,-150 677.38,-156 677.38,-156 677.38,-168 677.38,-168 677.38,-174 671.38,-180 665.38,-180"/>
<text text-anchor="middle" x="645.38" y="-158.12" font-family="sans" font-size="10.00">prep_raxml</text>
</g>
<!-- 11&#45;&gt;1 -->
<g id="edge4" class="edge">
<title>11&#45;&gt;1</title>
<path fill="none" stroke="grey" stroke-width="2" d="M678.11,-157.76C717.17,-154 784.48,-147.81 842.38,-144 1284.46,-114.93 1821.5,-96.97 1972.28,-92.25"/>
<polygon fill="grey" stroke="grey" stroke-width="2" points="1972.37,-95.66 1982.26,-91.85 1972.15,-88.66 1972.37,-95.66"/>
</g>
<!-- 12&#45;&gt;11 -->
<g id="edge29" class="edge">
<title>12&#45;&gt;11</title>
<path fill="none" stroke="grey" stroke-width="2" d="M556.71,-215.15C571.12,-206.68 588.56,-196.42 604.14,-187.25"/>
<polygon fill="grey" stroke="grey" stroke-width="2" points="606.25,-189.9 613.09,-181.81 602.7,-183.87 606.25,-189.9"/>
</g>
<!-- 13&#45;&gt;11 -->
<g id="edge30" class="edge">
<title>13&#45;&gt;11</title>
<path fill="none" stroke="grey" stroke-width="2" d="M645.38,-215.34C645.38,-208.75 645.38,-201.08 645.38,-193.67"/>
<polygon fill="grey" stroke="grey" stroke-width="2" points="648.88,-193.9 645.38,-183.9 641.88,-193.9 648.88,-193.9"/>
</g>
<!-- 14 -->
<g id="node15" class="node">
<title>14</title>
<path fill="none" stroke="#d8cb56" stroke-width="2" stroke-dasharray="5,2" d="M903.38,-180C903.38,-180 863.38,-180 863.38,-180 857.38,-180 851.38,-174 851.38,-168 851.38,-168 851.38,-156 851.38,-156 851.38,-150 857.38,-144 863.38,-144 863.38,-144 903.38,-144 903.38,-144 909.38,-144 915.38,-150 915.38,-156 915.38,-156 915.38,-168 915.38,-168 915.38,-174 909.38,-180 903.38,-180"/>
<text text-anchor="middle" x="883.38" y="-158.12" font-family="sans" font-size="10.00">prep_raxml</text>
</g>
<!-- 14&#45;&gt;1 -->
<g id="edge5" class="edge">
<title>14&#45;&gt;1</title>
<path fill="none" stroke="grey" stroke-width="2" d="M916.12,-157.88C955.19,-154.22 1022.51,-148.14 1080.38,-144 1425.01,-119.35 1841.92,-99.03 1972.36,-92.9"/>
<polygon fill="grey" stroke="grey" stroke-width="2" points="1972.29,-96.27 1982.11,-92.3 1971.96,-89.27 1972.29,-96.27"/>
</g>
<!-- 15&#45;&gt;14 -->
<g id="edge33" class="edge">
<title>15&#45;&gt;14</title>
<path fill="none" stroke="grey" stroke-width="2" d="M794.71,-215.15C809.12,-206.68 826.56,-196.42 842.14,-187.25"/>
<polygon fill="grey" stroke="grey" stroke-width="2" points="844.25,-189.9 851.09,-181.81 840.7,-183.87 844.25,-189.9"/>
</g>
<!-- 16&#45;&gt;14 -->
<g id="edge34" class="edge">
<title>16&#45;&gt;14</title>
<path fill="none" stroke="grey" stroke-width="2" d="M883.38,-215.34C883.38,-208.75 883.38,-201.08 883.38,-193.67"/>
<polygon fill="grey" stroke="grey" stroke-width="2" points="886.88,-193.9 883.38,-183.9 879.88,-193.9 886.88,-193.9"/>
</g>
<!-- 17 -->
<g id="node18" class="node">
<title>17</title>
<path fill="none" stroke="#d8cb56" stroke-width="2" stroke-dasharray="5,2" d="M1141.38,-180C1141.38,-180 1101.38,-180 1101.38,-180 1095.38,-180 1089.38,-174 1089.38,-168 1089.38,-168 1089.38,-156 1089.38,-156 1089.38,-150 1095.38,-144 1101.38,-144 1101.38,-144 1141.38,-144 1141.38,-144 1147.38,-144 1153.38,-150 1153.38,-156 1153.38,-156 1153.38,-168 1153.38,-168 1153.38,-174 1147.38,-180 1141.38,-180"/>
<text text-anchor="middle" x="1121.38" y="-158.12" font-family="sans" font-size="10.00">prep_raxml</text>
</g>
<!-- 17&#45;&gt;1 -->
<g id="edge6" class="edge">
<title>17&#45;&gt;1</title>
<path fill="none" stroke="grey" stroke-width="2" d="M1154.13,-158.07C1193.22,-154.6 1260.55,-148.7 1318.38,-144 1566.48,-123.84 1864.59,-101.86 1972.16,-94"/>
<polygon fill="grey" stroke="grey" stroke-width="2" points="1972.18,-97.29 1981.9,-93.07 1971.67,-90.31 1972.18,-97.29"/>
</g>
<!-- 18&#45;&gt;17 -->
<g id="edge37" class="edge">
<title>18&#45;&gt;17</title>
<path fill="none" stroke="grey" stroke-width="2" d="M1032.71,-215.15C1047.12,-206.68 1064.56,-196.42 1080.14,-187.25"/>
<polygon fill="grey" stroke="grey" stroke-width="2" points="1082.25,-189.9 1089.09,-181.81 1078.7,-183.87 1082.25,-189.9"/>
</g>
<!-- 19&#45;&gt;17 -->
<g id="edge38" class="edge">
<title>19&#45;&gt;17</title>
<path fill="none" stroke="grey" stroke-width="2" d="M1121.38,-215.34C1121.38,-208.75 1121.38,-201.08 1121.38,-193.67"/>
<polygon fill="grey" stroke="grey" stroke-width="2" points="1124.88,-193.9 1121.38,-183.9 1117.88,-193.9 1124.88,-193.9"/>
</g>
<!-- 20 -->
<g id="node21" class="node">
<title>20</title>
<path fill="none" stroke="#d8cb56" stroke-width="2" stroke-dasharray="5,2" d="M1379.38,-180C1379.38,-180 1339.38,-180 1339.38,-180 1333.38,-180 1327.38,-174 1327.38,-168 1327.38,-168 1327.38,-156 1327.38,-156 1327.38,-150 1333.38,-144 1339.38,-144 1339.38,-144 1379.38,-144 1379.38,-144 1385.38,-144 1391.38,-150 1391.38,-156 1391.38,-156 1391.38,-168 1391.38,-168 1391.38,-174 1385.38,-180 1379.38,-180"/>
<text text-anchor="middle" x="1359.38" y="-158.12" font-family="sans" font-size="10.00">prep_raxml</text>
</g>
<!-- 20&#45;&gt;1 -->
<g id="edge7" class="edge">
<title>20&#45;&gt;1</title>
<path fill="none" stroke="grey" stroke-width="2" d="M1392.26,-157.48C1501.37,-145.8 1851.41,-108.34 1972.05,-95.42"/>
<polygon fill="grey" stroke="grey" stroke-width="2" points="1972.38,-98.59 1981.95,-94.04 1971.63,-91.63 1972.38,-98.59"/>
</g>
<!-- 21&#45;&gt;20 -->
<g id="edge41" class="edge">
<title>21&#45;&gt;20</title>
<path fill="none" stroke="grey" stroke-width="2" d="M1270.71,-215.15C1285.12,-206.68 1302.56,-196.42 1318.14,-187.25"/>
<polygon fill="grey" stroke="grey" stroke-width="2" points="1320.25,-189.9 1327.09,-181.81 1316.7,-183.87 1320.25,-189.9"/>
</g>
<!-- 22&#45;&gt;20 -->
<g id="edge42" class="edge">
<title>22&#45;&gt;20</title>
<path fill="none" stroke="grey" stroke-width="2" d="M1359.38,-215.34C1359.38,-208.75 1359.38,-201.08 1359.38,-193.67"/>
<polygon fill="grey" stroke="grey" stroke-width="2" points="1362.88,-193.9 1359.38,-183.9 1355.88,-193.9 1362.88,-193.9"/>
</g>
<!-- 23 -->
<g id="node24" class="node">
<title>23</title>
<path fill="none" stroke="#d8cb56" stroke-width="2" stroke-dasharray="5,2" d="M1617.38,-180C1617.38,-180 1577.38,-180 1577.38,-180 1571.38,-180 1565.38,-174 1565.38,-168 1565.38,-168 1565.38,-156 1565.38,-156 1565.38,-150 1571.38,-144 1577.38,-144 1577.38,-144 1617.38,-144 1617.38,-144 1623.38,-144 1629.38,-150 1629.38,-156 1629.38,-156 1629.38,-168 1629.38,-168 1629.38,-174 1623.38,-180 1617.38,-180"/>
<text text-anchor="middle" x="1597.38" y="-158.12" font-family="sans" font-size="10.00">prep_raxml</text>
</g>
<!-- 23&#45;&gt;1 -->
<g id="edge8" class="edge">
<title>23&#45;&gt;1</title>
<path fill="none" stroke="grey" stroke-width="2" d="M1630.37,-155.45C1705.64,-142.78 1889.9,-111.78 1972.34,-97.9"/>
<polygon fill="grey" stroke="grey" stroke-width="2" points="1973.85,-100.86 1983.13,-95.75 1972.68,-93.96 1973.85,-100.86"/>
</g>
<!-- 24&#45;&gt;23 -->
<g id="edge45" class="edge">
<title>24&#45;&gt;23</title>
<path fill="none" stroke="grey" stroke-width="2" d="M1508.71,-215.15C1523.12,-206.68 1540.56,-196.42 1556.14,-187.25"/>
<polygon fill="grey" stroke="grey" stroke-width="2" points="1558.25,-189.9 1565.09,-181.81 1554.7,-183.87 1558.25,-189.9"/>
</g>
<!-- 25&#45;&gt;23 -->
<g id="edge46" class="edge">
<title>25&#45;&gt;23</title>
<path fill="none" stroke="grey" stroke-width="2" d="M1597.38,-215.34C1597.38,-208.75 1597.38,-201.08 1597.38,-193.67"/>
<polygon fill="grey" stroke="grey" stroke-width="2" points="1600.88,-193.9 1597.38,-183.9 1593.88,-193.9 1600.88,-193.9"/>
</g>
<!-- 26 -->
<g id="node27" class="node">
<title>26</title>
<path fill="none" stroke="#d8cb56" stroke-width="2" stroke-dasharray="5,2" d="M1855.38,-180C1855.38,-180 1815.38,-180 1815.38,-180 1809.38,-180 1803.38,-174 1803.38,-168 1803.38,-168 1803.38,-156 1803.38,-156 1803.38,-150 1809.38,-144 1815.38,-144 1815.38,-144 1855.38,-144 1855.38,-144 1861.38,-144 1867.38,-150 1867.38,-156 1867.38,-156 1867.38,-168 1867.38,-168 1867.38,-174 1861.38,-180 1855.38,-180"/>
<text text-anchor="middle" x="1835.38" y="-158.12" font-family="sans" font-size="10.00">prep_raxml</text>
</g>
<!-- 26&#45;&gt;1 -->
<g id="edge9" class="edge">
<title>26&#45;&gt;1</title>
<path fill="none" stroke="grey" stroke-width="2" d="M1868.02,-148.16C1897.62,-136.52 1941.33,-119.33 1973.09,-106.84"/>
<polygon fill="grey" stroke="grey" stroke-width="2" points="1975.02,-110.06 1983.04,-103.14 1972.45,-103.55 1975.02,-110.06"/>
</g>
<!-- 27&#45;&gt;26 -->
<g id="edge49" class="edge">
<title>27&#45;&gt;26</title>
<path fill="none" stroke="grey" stroke-width="2" d="M1746.71,-215.15C1761.12,-206.68 1778.56,-196.42 1794.14,-187.25"/>
<polygon fill="grey" stroke="grey" stroke-width="2" points="1796.25,-189.9 1803.09,-181.81 1792.7,-183.87 1796.25,-189.9"/>
</g>
<!-- 28&#45;&gt;26 -->
<g id="edge50" class="edge">
<title>28&#45;&gt;26</title>
<path fill="none" stroke="grey" stroke-width="2" d="M1835.38,-215.34C1835.38,-208.75 1835.38,-201.08 1835.38,-193.67"/>
<polygon fill="grey" stroke="grey" stroke-width="2" points="1838.88,-193.9 1835.38,-183.9 1831.88,-193.9 1838.88,-193.9"/>
</g>
<!-- 29 -->
<g id="node30" class="node">
<title>29</title>
<path fill="none" stroke="#d8cb56" stroke-width="2" stroke-dasharray="5,2" d="M2033.38,-180C2033.38,-180 1993.38,-180 1993.38,-180 1987.38,-180 1981.38,-174 1981.38,-168 1981.38,-168 1981.38,-156 1981.38,-156 1981.38,-150 1987.38,-144 1993.38,-144 1993.38,-144 2033.38,-144 2033.38,-144 2039.38,-144 2045.38,-150 2045.38,-156 2045.38,-156 2045.38,-168 2045.38,-168 2045.38,-174 2039.38,-180 2033.38,-180"/>
<text text-anchor="middle" x="2013.38" y="-158.12" font-family="sans" font-size="10.00">prep_raxml</text>
</g>
<!-- 29&#45;&gt;1 -->
<g id="edge10" class="edge">
<title>29&#45;&gt;1</title>
<path fill="none" stroke="grey" stroke-width="2" d="M2013.38,-143.34C2013.38,-136.75 2013.38,-129.08 2013.38,-121.67"/>
<polygon fill="grey" stroke="grey" stroke-width="2" points="2016.88,-121.9 2013.38,-111.9 2009.88,-121.9 2016.88,-121.9"/>
</g>
<!-- 30&#45;&gt;29 -->
<g id="edge53" class="edge">
<title>30&#45;&gt;29</title>
<path fill="none" stroke="grey" stroke-width="2" d="M1969.26,-215.34C1975.57,-207.85 1983.08,-198.95 1990.09,-190.63"/>
<polygon fill="grey" stroke="grey" stroke-width="2" points="1993.52,-192.8 1997.29,-182.9 1988.17,-188.29 1993.52,-192.8"/>
</g>
<!-- 31&#45;&gt;29 -->
<g id="edge54" class="edge">
<title>31&#45;&gt;29</title>
<path fill="none" stroke="grey" stroke-width="2" d="M2058.23,-215.34C2051.82,-207.85 2044.19,-198.95 2037.06,-190.63"/>
<polygon fill="grey" stroke="grey" stroke-width="2" points="2038.88,-188.22 2029.72,-182.9 2033.57,-192.77 2038.88,-188.22"/>
</g>
<!-- 32 -->
<g id="node33" class="node">
<title>32</title>
<path fill="none" stroke="#d8cb56" stroke-width="2" stroke-dasharray="5,2" d="M2214.38,-180C2214.38,-180 2174.38,-180 2174.38,-180 2168.38,-180 2162.38,-174 2162.38,-168 2162.38,-168 2162.38,-156 2162.38,-156 2162.38,-150 2168.38,-144 2174.38,-144 2174.38,-144 2214.38,-144 2214.38,-144 2220.38,-144 2226.38,-150 2226.38,-156 2226.38,-156 2226.38,-168 2226.38,-168 2226.38,-174 2220.38,-180 2214.38,-180"/>
<text text-anchor="middle" x="2194.38" y="-158.12" font-family="sans" font-size="10.00">prep_raxml</text>
</g>
<!-- 32&#45;&gt;1 -->
<g id="edge11" class="edge">
<title>32&#45;&gt;1</title>
<path fill="none" stroke="grey" stroke-width="2" d="M2161.6,-148.32C2131.25,-136.59 2086.03,-119.1 2053.52,-106.53"/>
<polygon fill="grey" stroke="grey" stroke-width="2" points="2054.33,-103.31 2043.74,-102.97 2051.81,-109.84 2054.33,-103.31"/>
</g>
<!-- 33&#45;&gt;32 -->
<g id="edge57" class="edge">
<title>33&#45;&gt;32</title>
<path fill="none" stroke="grey" stroke-width="2" d="M2194.38,-215.34C2194.38,-208.75 2194.38,-201.08 2194.38,-193.67"/>
<polygon fill="grey" stroke="grey" stroke-width="2" points="2197.88,-193.9 2194.38,-183.9 2190.88,-193.9 2197.88,-193.9"/>
</g>
<!-- 34&#45;&gt;32 -->
<g id="edge58" class="edge">
<title>34&#45;&gt;32</title>
<path fill="none" stroke="grey" stroke-width="2" d="M2286.76,-215.15C2271.61,-206.6 2253.23,-196.22 2236.87,-186.99"/>
<polygon fill="grey" stroke="grey" stroke-width="2" points="2238.36,-183.68 2227.93,-181.81 2234.92,-189.78 2238.36,-183.68"/>
</g>
<!-- 35 -->
<g id="node36" class="node">
<title>35</title>
<path fill="none" stroke="#d8cb56" stroke-width="2" stroke-dasharray="5,2" d="M2462.38,-180C2462.38,-180 2422.38,-180 2422.38,-180 2416.38,-180 2410.38,-174 2410.38,-168 2410.38,-168 2410.38,-156 2410.38,-156 2410.38,-150 2416.38,-144 2422.38,-144 2422.38,-144 2462.38,-144 2462.38,-144 2468.38,-144 2474.38,-150 2474.38,-156 2474.38,-156 2474.38,-168 2474.38,-168 2474.38,-174 2468.38,-180 2462.38,-180"/>
<text text-anchor="middle" x="2442.38" y="-158.12" font-family="sans" font-size="10.00">prep_raxml</text>
</g>
<!-- 35&#45;&gt;1 -->
<g id="edge12" class="edge">
<title>35&#45;&gt;1</title>
<path fill="none" stroke="grey" stroke-width="2" d="M2409.42,-155.62C2332.14,-143.01 2139.33,-111.55 2054.52,-97.71"/>
<polygon fill="grey" stroke="grey" stroke-width="2" points="2054.3,-93.81 2043.87,-95.65 2053.17,-100.71 2054.3,-93.81"/>
</g>
<!-- 36&#45;&gt;35 -->
<g id="edge61" class="edge">
<title>36&#45;&gt;35</title>
<path fill="none" stroke="grey" stroke-width="2" d="M2442.38,-215.34C2442.38,-208.75 2442.38,-201.08 2442.38,-193.67"/>
<polygon fill="grey" stroke="grey" stroke-width="2" points="2445.88,-193.9 2442.38,-183.9 2438.88,-193.9 2445.88,-193.9"/>
</g>
<!-- 37&#45;&gt;35 -->
<g id="edge62" class="edge">
<title>37&#45;&gt;35</title>
<path fill="none" stroke="grey" stroke-width="2" d="M2534.76,-215.15C2519.61,-206.6 2501.23,-196.22 2484.87,-186.99"/>
<polygon fill="grey" stroke="grey" stroke-width="2" points="2486.36,-183.68 2475.93,-181.81 2482.92,-189.78 2486.36,-183.68"/>
</g>
<!-- 38 -->
<g id="node39" class="node">
<title>38</title>
<path fill="none" stroke="#d8cb56" stroke-width="2" stroke-dasharray="5,2" d="M2710.38,-180C2710.38,-180 2670.38,-180 2670.38,-180 2664.38,-180 2658.38,-174 2658.38,-168 2658.38,-168 2658.38,-156 2658.38,-156 2658.38,-150 2664.38,-144 2670.38,-144 2670.38,-144 2710.38,-144 2710.38,-144 2716.38,-144 2722.38,-150 2722.38,-156 2722.38,-156 2722.38,-168 2722.38,-168 2722.38,-174 2716.38,-180 2710.38,-180"/>
<text text-anchor="middle" x="2690.38" y="-158.12" font-family="sans" font-size="10.00">prep_raxml</text>
</g>
<!-- 38&#45;&gt;1 -->
<g id="edge13" class="edge">
<title>38&#45;&gt;1</title>
<path fill="none" stroke="grey" stroke-width="2" d="M2657.72,-157.62C2545.96,-146.07 2178.84,-108.11 2054.77,-95.28"/>
<polygon fill="grey" stroke="grey" stroke-width="2" points="2055.17,-91.49 2044.86,-93.95 2054.45,-98.46 2055.17,-91.49"/>
</g>
<!-- 39&#45;&gt;38 -->
<g id="edge65" class="edge">
<title>39&#45;&gt;38</title>
<path fill="none" stroke="grey" stroke-width="2" d="M2690.38,-215.34C2690.38,-208.75 2690.38,-201.08 2690.38,-193.67"/>
<polygon fill="grey" stroke="grey" stroke-width="2" points="2693.88,-193.9 2690.38,-183.9 2686.88,-193.9 2693.88,-193.9"/>
</g>
<!-- 40&#45;&gt;38 -->
<g id="edge66" class="edge">
<title>40&#45;&gt;38</title>
<path fill="none" stroke="grey" stroke-width="2" d="M2782.76,-215.15C2767.61,-206.6 2749.23,-196.22 2732.87,-186.99"/>
<polygon fill="grey" stroke="grey" stroke-width="2" points="2734.36,-183.68 2723.93,-181.81 2730.92,-189.78 2734.36,-183.68"/>
</g>
<!-- 41 -->
<g id="node42" class="node">
<title>41</title>
<path fill="none" stroke="#d8cb56" stroke-width="2" stroke-dasharray="5,2" d="M2958.38,-180C2958.38,-180 2918.38,-180 2918.38,-180 2912.38,-180 2906.38,-174 2906.38,-168 2906.38,-168 2906.38,-156 2906.38,-156 2906.38,-150 2912.38,-144 2918.38,-144 2918.38,-144 2958.38,-144 2958.38,-144 2964.38,-144 2970.38,-150 2970.38,-156 2970.38,-156 2970.38,-168 2970.38,-168 2970.38,-174 2964.38,-180 2958.38,-180"/>
<text text-anchor="middle" x="2938.38" y="-158.12" font-family="sans" font-size="10.00">prep_raxml</text>
</g>
<!-- 41&#45;&gt;1 -->
<g id="edge14" class="edge">
<title>41&#45;&gt;1</title>
<path fill="none" stroke="grey" stroke-width="2" d="M2905.4,-158.21C2864.56,-154.77 2792.85,-148.79 2731.38,-144 2473.88,-123.92 2164.29,-101.73 2054.45,-93.91"/>
<polygon fill="grey" stroke="grey" stroke-width="2" points="2055,-90.23 2044.77,-93.01 2054.5,-97.21 2055,-90.23"/>
</g>
<!-- 42&#45;&gt;41 -->
<g id="edge69" class="edge">
<title>42&#45;&gt;41</title>
<path fill="none" stroke="grey" stroke-width="2" d="M2938.38,-215.34C2938.38,-208.75 2938.38,-201.08 2938.38,-193.67"/>
<polygon fill="grey" stroke="grey" stroke-width="2" points="2941.88,-193.9 2938.38,-183.9 2934.88,-193.9 2941.88,-193.9"/>
</g>
<!-- 43&#45;&gt;41 -->
<g id="edge70" class="edge">
<title>43&#45;&gt;41</title>
<path fill="none" stroke="grey" stroke-width="2" d="M3030.76,-215.15C3015.61,-206.6 2997.23,-196.22 2980.87,-186.99"/>
<polygon fill="grey" stroke="grey" stroke-width="2" points="2982.36,-183.68 2971.93,-181.81 2978.92,-189.78 2982.36,-183.68"/>
</g>
<!-- 44 -->
<g id="node45" class="node">
<title>44</title>
<path fill="none" stroke="#d8cb56" stroke-width="2" stroke-dasharray="5,2" d="M3206.38,-180C3206.38,-180 3166.38,-180 3166.38,-180 3160.38,-180 3154.38,-174 3154.38,-168 3154.38,-168 3154.38,-156 3154.38,-156 3154.38,-150 3160.38,-144 3166.38,-144 3166.38,-144 3206.38,-144 3206.38,-144 3212.38,-144 3218.38,-150 3218.38,-156 3218.38,-156 3218.38,-168 3218.38,-168 3218.38,-174 3212.38,-180 3206.38,-180"/>
<text text-anchor="middle" x="3186.38" y="-158.12" font-family="sans" font-size="10.00">prep_raxml</text>
</g>
<!-- 44&#45;&gt;1 -->
<g id="edge15" class="edge">
<title>44&#45;&gt;1</title>
<path fill="none" stroke="grey" stroke-width="2" d="M3153.41,-158.02C3112.59,-154.38 3040.89,-148.21 2979.38,-144 2621.35,-119.48 2188.05,-98.97 2054.52,-92.86"/>
<polygon fill="grey" stroke="grey" stroke-width="2" points="2054.99,-89.24 2044.84,-92.28 2054.67,-96.23 2054.99,-89.24"/>
</g>
<!-- 45&#45;&gt;44 -->
<g id="edge73" class="edge">
<title>45&#45;&gt;44</title>
<path fill="none" stroke="grey" stroke-width="2" d="M3186.38,-215.34C3186.38,-208.75 3186.38,-201.08 3186.38,-193.67"/>
<polygon fill="grey" stroke="grey" stroke-width="2" points="3189.88,-193.9 3186.38,-183.9 3182.88,-193.9 3189.88,-193.9"/>
</g>
<!-- 46&#45;&gt;44 -->
<g id="edge74" class="edge">
<title>46&#45;&gt;44</title>
<path fill="none" stroke="grey" stroke-width="2" d="M3278.76,-215.15C3263.61,-206.6 3245.23,-196.22 3228.87,-186.99"/>
<polygon fill="grey" stroke="grey" stroke-width="2" points="3230.36,-183.68 3219.93,-181.81 3226.92,-189.78 3230.36,-183.68"/>
</g>
<!-- 47 -->
<g id="node48" class="node">
<title>47</title>
<path fill="none" stroke="#d8cb56" stroke-width="2" stroke-dasharray="5,2" d="M3454.38,-180C3454.38,-180 3414.38,-180 3414.38,-180 3408.38,-180 3402.38,-174 3402.38,-168 3402.38,-168 3402.38,-156 3402.38,-156 3402.38,-150 3408.38,-144 3414.38,-144 3414.38,-144 3454.38,-144 3454.38,-144 3460.38,-144 3466.38,-150 3466.38,-156 3466.38,-156 3466.38,-168 3466.38,-168 3466.38,-174 3460.38,-180 3454.38,-180"/>
<text text-anchor="middle" x="3434.38" y="-158.12" font-family="sans" font-size="10.00">prep_raxml</text>
</g>
<!-- 47&#45;&gt;1 -->
<g id="edge16" class="edge">
<title>47&#45;&gt;1</title>
<path fill="none" stroke="grey" stroke-width="2" d="M3401.42,-157.9C3360.6,-154.15 3288.91,-147.87 3227.38,-144 2767.52,-115.09 2208.68,-96.93 2054.47,-92.22"/>
<polygon fill="grey" stroke="grey" stroke-width="2" points="2054.73,-88.64 2044.63,-91.83 2054.52,-95.63 2054.73,-88.64"/>
</g>
<!-- 48&#45;&gt;47 -->
<g id="edge77" class="edge">
<title>48&#45;&gt;47</title>
<path fill="none" stroke="grey" stroke-width="2" d="M3434.38,-215.34C3434.38,-208.75 3434.38,-201.08 3434.38,-193.67"/>
<polygon fill="grey" stroke="grey" stroke-width="2" points="3437.88,-193.9 3434.38,-183.9 3430.88,-193.9 3437.88,-193.9"/>
</g>
<!-- 49&#45;&gt;47 -->
<g id="edge78" class="edge">
<title>49&#45;&gt;47</title>
<path fill="none" stroke="grey" stroke-width="2" d="M3526.76,-215.15C3511.61,-206.6 3493.23,-196.22 3476.87,-186.99"/>
<polygon fill="grey" stroke="grey" stroke-width="2" points="3478.36,-183.68 3467.93,-181.81 3474.92,-189.78 3478.36,-183.68"/>
</g>
<!-- 50 -->
<g id="node51" class="node">
<title>50</title>
<path fill="none" stroke="#d8cb56" stroke-width="2" stroke-dasharray="5,2" d="M3702.38,-180C3702.38,-180 3662.38,-180 3662.38,-180 3656.38,-180 3650.38,-174 3650.38,-168 3650.38,-168 3650.38,-156 3650.38,-156 3650.38,-150 3656.38,-144 3662.38,-144 3662.38,-144 3702.38,-144 3702.38,-144 3708.38,-144 3714.38,-150 3714.38,-156 3714.38,-156 3714.38,-168 3714.38,-168 3714.38,-174 3708.38,-180 3702.38,-180"/>
<text text-anchor="middle" x="3682.38" y="-158.12" font-family="sans" font-size="10.00">prep_raxml</text>
</g>
<!-- 50&#45;&gt;1 -->
<g id="edge17" class="edge">
<title>50&#45;&gt;1</title>
<path fill="none" stroke="grey" stroke-width="2" d="M3649.42,-157.83C3608.61,-154 3536.93,-147.64 3475.38,-144 2913.16,-110.74 2228,-95.33 2054.7,-91.81"/>
<polygon fill="grey" stroke="grey" stroke-width="2" points="2054.83,-88.25 2044.76,-91.55 2054.69,-95.25 2054.83,-88.25"/>
</g>
<!-- 51&#45;&gt;50 -->
<g id="edge81" class="edge">
<title>51&#45;&gt;50</title>
<path fill="none" stroke="grey" stroke-width="2" d="M3682.38,-215.34C3682.38,-208.75 3682.38,-201.08 3682.38,-193.67"/>
<polygon fill="grey" stroke="grey" stroke-width="2" points="3685.88,-193.9 3682.38,-183.9 3678.88,-193.9 3685.88,-193.9"/>
</g>
<!-- 52&#45;&gt;50 -->
<g id="edge82" class="edge">
<title>52&#45;&gt;50</title>
<path fill="none" stroke="grey" stroke-width="2" d="M3774.76,-215.15C3759.61,-206.6 3741.23,-196.22 3724.87,-186.99"/>
<polygon fill="grey" stroke="grey" stroke-width="2" points="3726.36,-183.68 3715.93,-181.81 3722.92,-189.78 3726.36,-183.68"/>
</g>
<!-- 53 -->
<g id="node54" class="node">
<title>53</title>
<path fill="none" stroke="#d8cb56" stroke-width="2" stroke-dasharray="5,2" d="M3950.38,-180C3950.38,-180 3910.38,-180 3910.38,-180 3904.38,-180 3898.38,-174 3898.38,-168 3898.38,-168 3898.38,-156 3898.38,-156 3898.38,-150 3904.38,-144 3910.38,-144 3910.38,-144 3950.38,-144 3950.38,-144 3956.38,-144 3962.38,-150 3962.38,-156 3962.38,-156 3962.38,-168 3962.38,-168 3962.38,-174 3956.38,-180 3950.38,-180"/>
<text text-anchor="middle" x="3930.38" y="-158.12" font-family="sans" font-size="10.00">prep_raxml</text>
</g>
<!-- 53&#45;&gt;1 -->
<g id="edge18" class="edge">
<title>53&#45;&gt;1</title>
<path fill="none" stroke="grey" stroke-width="2" d="M3897.43,-157.77C3856.62,-153.9 3784.94,-147.48 3723.38,-144 3058,-106.39 2245.38,-93.99 2054.75,-91.5"/>
<polygon fill="grey" stroke="grey" stroke-width="2" points="2054.91,-87.97 2044.87,-91.34 2054.82,-94.97 2054.91,-87.97"/>
</g>
<!-- 54&#45;&gt;53 -->
<g id="edge85" class="edge">
<title>54&#45;&gt;53</title>
<path fill="none" stroke="grey" stroke-width="2" d="M3930.38,-215.34C3930.38,-208.75 3930.38,-201.08 3930.38,-193.67"/>
<polygon fill="grey" stroke="grey" stroke-width="2" points="3933.88,-193.9 3930.38,-183.9 3926.88,-193.9 3933.88,-193.9"/>
</g>
<!-- 55&#45;&gt;53 -->
<g id="edge86" class="edge">
<title>55&#45;&gt;53</title>
<path fill="none" stroke="grey" stroke-width="2" d="M4022.76,-215.15C4007.61,-206.6 3989.23,-196.22 3972.87,-186.99"/>
<polygon fill="grey" stroke="grey" stroke-width="2" points="3974.36,-183.68 3963.93,-181.81 3970.92,-189.78 3974.36,-183.68"/>
</g>
</g>
</svg>
