<?xml version="1.0" encoding="UTF-8" standalone="no"?>
<!DOCTYPE svg PUBLIC "-//W3C//DTD SVG 1.1//EN"
 "http://www.w3.org/Graphics/SVG/1.1/DTD/svg11.dtd">
<!-- Generated by graphviz version 8.0.5 (0)
 -->
<!-- Title: snakemake_dag Pages: 1 -->
<svg width="2052pt" height="404pt"
 viewBox="0.00 0.00 2052.38 404.00" xmlns="http://www.w3.org/2000/svg" xmlns:xlink="http://www.w3.org/1999/xlink">
<g id="graph0" class="graph" transform="scale(1 1) rotate(0) translate(4 400)">
<title>snakemake_dag</title>
<polygon fill="white" stroke="none" points="-4,4 -4,-400 2048.38,-400 2048.38,4 -4,4"/>
<!-- 0 -->
<g id="node1" class="node">
<title>0</title>
<path fill="none" stroke="#78d856" stroke-width="2" stroke-dasharray="5,2" d="M1017.38,-36C1017.38,-36 987.38,-36 987.38,-36 981.38,-36 975.38,-30 975.38,-24 975.38,-24 975.38,-12 975.38,-12 975.38,-6 981.38,0 987.38,0 987.38,0 1017.38,0 1017.38,0 1023.38,0 1029.38,-6 1029.38,-12 1029.38,-12 1029.38,-24 1029.38,-24 1029.38,-30 1023.38,-36 1017.38,-36"/>
<text text-anchor="middle" x="1002.38" y="-14.12" font-family="sans" font-size="10.00">all</text>
</g>
<!-- 1 -->
<g id="node2" class="node">
<title>1</title>
<path fill="none" stroke="#d8a456" stroke-width="2" stroke-dasharray="5,2" d="M1017.88,-108C1017.88,-108 986.88,-108 986.88,-108 980.88,-108 974.88,-102 974.88,-96 974.88,-96 974.88,-84 974.88,-84 974.88,-78 980.88,-72 986.88,-72 986.88,-72 1017.88,-72 1017.88,-72 1023.88,-72 1029.88,-78 1029.88,-84 1029.88,-84 1029.88,-96 1029.88,-96 1029.88,-102 1023.88,-108 1017.88,-108"/>
<text text-anchor="middle" x="1002.38" y="-86.12" font-family="sans" font-size="10.00">final_rule</text>
</g>
<!-- 1&#45;&gt;0 -->
<g id="edge1" class="edge">
<title>1&#45;&gt;0</title>
<path fill="none" stroke="grey" stroke-width="2" d="M1002.38,-71.34C1002.38,-64.75 1002.38,-57.08 1002.38,-49.67"/>
<polygon fill="grey" stroke="grey" stroke-width="2" points="1005.88,-49.9 1002.38,-39.9 998.88,-49.9 1005.88,-49.9"/>
</g>
<!-- 2 -->
<g id="node3" class="node">
<title>2</title>
<path fill="none" stroke="#c6d856" stroke-width="2" stroke-dasharray="5,2" d="M88.75,-180C88.75,-180 12,-180 12,-180 6,-180 0,-174 0,-168 0,-168 0,-156 0,-156 0,-150 6,-144 12,-144 12,-144 88.75,-144 88.75,-144 94.75,-144 100.75,-150 100.75,-156 100.75,-156 100.75,-168 100.75,-168 100.75,-174 94.75,-180 88.75,-180"/>
<text text-anchor="middle" x="50.38" y="-163.75" font-family="sans" font-size="10.00">family_constraint</text>
<text text-anchor="middle" x="50.38" y="-152.5" font-family="sans" font-size="10.00">scatteritem: 1&#45;of&#45;17</text>
</g>
<!-- 2&#45;&gt;1 -->
<g id="edge2" class="edge">
<title>2&#45;&gt;1</title>
<path fill="none" stroke="grey" stroke-width="2" d="M101.59,-145.7C104.55,-145.06 107.49,-144.49 110.38,-144 277.6,-115.69 809.88,-97.08 961.63,-92.25"/>
<polygon fill="grey" stroke="grey" stroke-width="2" points="961.43,-95.66 971.31,-91.85 961.21,-88.66 961.43,-95.66"/>
</g>
<!-- 3 -->
<g id="node4" class="node">
<title>3</title>
<path fill="none" stroke="#56d8c9" stroke-width="2" stroke-dasharray="5,2" d="M1025,-252C1025,-252 979.75,-252 979.75,-252 973.75,-252 967.75,-246 967.75,-240 967.75,-240 967.75,-228 967.75,-228 967.75,-222 973.75,-216 979.75,-216 979.75,-216 1025,-216 1025,-216 1031,-216 1037,-222 1037,-228 1037,-228 1037,-240 1037,-240 1037,-246 1031,-252 1025,-252"/>
<text text-anchor="middle" x="1002.38" y="-230.12" font-family="sans" font-size="10.00">family_fasta</text>
</g>
<!-- 3&#45;&gt;2 -->
<g id="edge19" class="edge">
<title>3&#45;&gt;2</title>
<path fill="none" stroke="grey" stroke-width="2" d="M966.88,-231.92C825.9,-227.47 304.3,-209.5 114.42,-180.37"/>
<polygon fill="grey" stroke="grey" stroke-width="2" points="114.02,-176.44 103.59,-178.3 112.91,-183.35 114.02,-176.44"/>
</g>
<!-- 6 -->
<g id="node7" class="node">
<title>6</title>
<path fill="none" stroke="#c6d856" stroke-width="2" stroke-dasharray="5,2" d="M207.75,-180C207.75,-180 131,-180 131,-180 125,-180 119,-174 119,-168 119,-168 119,-156 119,-156 119,-150 125,-144 131,-144 131,-144 207.75,-144 207.75,-144 213.75,-144 219.75,-150 219.75,-156 219.75,-156 219.75,-168 219.75,-168 219.75,-174 213.75,-180 207.75,-180"/>
<text text-anchor="middle" x="169.38" y="-163.75" font-family="sans" font-size="10.00">family_constraint</text>
<text text-anchor="middle" x="169.38" y="-152.5" font-family="sans" font-size="10.00">scatteritem: 2&#45;of&#45;17</text>
</g>
<!-- 3&#45;&gt;6 -->
<g id="edge22" class="edge">
<title>3&#45;&gt;6</title>
<path fill="none" stroke="grey" stroke-width="2" d="M967.01,-233.17C858.5,-233.16 520.75,-229.07 233.38,-180.47"/>
<polygon fill="grey" stroke="grey" stroke-width="2" points="233.05,-176.51 222.6,-178.27 231.86,-183.41 233.05,-176.51"/>
</g>
<!-- 7 -->
<g id="node8" class="node">
<title>7</title>
<path fill="none" stroke="#c6d856" stroke-width="2" stroke-dasharray="5,2" d="M326.75,-180C326.75,-180 250,-180 250,-180 244,-180 238,-174 238,-168 238,-168 238,-156 238,-156 238,-150 244,-144 250,-144 250,-144 326.75,-144 326.75,-144 332.75,-144 338.75,-150 338.75,-156 338.75,-156 338.75,-168 338.75,-168 338.75,-174 332.75,-180 326.75,-180"/>
<text text-anchor="middle" x="288.38" y="-163.75" font-family="sans" font-size="10.00">family_constraint</text>
<text text-anchor="middle" x="288.38" y="-152.5" font-family="sans" font-size="10.00">scatteritem: 3&#45;of&#45;17</text>
</g>
<!-- 3&#45;&gt;7 -->
<g id="edge23" class="edge">
<title>3&#45;&gt;7</title>
<path fill="none" stroke="grey" stroke-width="2" d="M966.97,-232.55C869.93,-230.81 591.57,-222.41 352.06,-180.45"/>
<polygon fill="grey" stroke="grey" stroke-width="2" points="352.07,-176.54 341.61,-178.23 350.84,-183.43 352.07,-176.54"/>
</g>
<!-- 8 -->
<g id="node9" class="node">
<title>8</title>
<path fill="none" stroke="#c6d856" stroke-width="2" stroke-dasharray="5,2" d="M445.75,-180C445.75,-180 369,-180 369,-180 363,-180 357,-174 357,-168 357,-168 357,-156 357,-156 357,-150 363,-144 369,-144 369,-144 445.75,-144 445.75,-144 451.75,-144 457.75,-150 457.75,-156 457.75,-156 457.75,-168 457.75,-168 457.75,-174 451.75,-180 445.75,-180"/>
<text text-anchor="middle" x="407.38" y="-163.75" font-family="sans" font-size="10.00">family_constraint</text>
<text text-anchor="middle" x="407.38" y="-152.5" font-family="sans" font-size="10.00">scatteritem: 4&#45;of&#45;17</text>
</g>
<!-- 3&#45;&gt;8 -->
<g id="edge24" class="edge">
<title>3&#45;&gt;8</title>
<path fill="none" stroke="grey" stroke-width="2" d="M967.01,-231.67C882.71,-228.02 663.23,-215.84 471.22,-180.53"/>
<polygon fill="grey" stroke="grey" stroke-width="2" points="471.09,-176.57 460.62,-178.17 469.8,-183.45 471.09,-176.57"/>
</g>
<!-- 9 -->
<g id="node10" class="node">
<title>9</title>
<path fill="none" stroke="#c6d856" stroke-width="2" stroke-dasharray="5,2" d="M564.75,-180C564.75,-180 488,-180 488,-180 482,-180 476,-174 476,-168 476,-168 476,-156 476,-156 476,-150 482,-144 488,-144 488,-144 564.75,-144 564.75,-144 570.75,-144 576.75,-150 576.75,-156 576.75,-156 576.75,-168 576.75,-168 576.75,-174 570.75,-180 564.75,-180"/>
<text text-anchor="middle" x="526.38" y="-163.75" font-family="sans" font-size="10.00">family_constraint</text>
<text text-anchor="middle" x="526.38" y="-152.5" font-family="sans" font-size="10.00">scatteritem: 5&#45;of&#45;17</text>
</g>
<!-- 3&#45;&gt;9 -->
<g id="edge25" class="edge">
<title>3&#45;&gt;9</title>
<path fill="none" stroke="grey" stroke-width="2" d="M967.02,-230.29C896.94,-224.54 735.33,-209.37 590.28,-180.62"/>
<polygon fill="grey" stroke="grey" stroke-width="2" points="590.13,-176.61 579.64,-178.07 588.75,-183.48 590.13,-176.61"/>
</g>
<!-- 10 -->
<g id="node11" class="node">
<title>10</title>
<path fill="none" stroke="#c6d856" stroke-width="2" stroke-dasharray="5,2" d="M683.75,-180C683.75,-180 607,-180 607,-180 601,-180 595,-174 595,-168 595,-168 595,-156 595,-156 595,-150 601,-144 607,-144 607,-144 683.75,-144 683.75,-144 689.75,-144 695.75,-150 695.75,-156 695.75,-156 695.75,-168 695.75,-168 695.75,-174 689.75,-180 683.75,-180"/>
<text text-anchor="middle" x="645.38" y="-163.75" font-family="sans" font-size="10.00">family_constraint</text>
<text text-anchor="middle" x="645.38" y="-152.5" font-family="sans" font-size="10.00">scatteritem: 6&#45;of&#45;17</text>
</g>
<!-- 3&#45;&gt;10 -->
<g id="edge26" class="edge">
<title>3&#45;&gt;10</title>
<path fill="none" stroke="grey" stroke-width="2" d="M966.94,-227.85C913.32,-219.79 808.13,-203.02 709.31,-180.78"/>
<polygon fill="grey" stroke="grey" stroke-width="2" points="709.2,-176.71 698.68,-177.9 707.65,-183.53 709.2,-176.71"/>
</g>
<!-- 11 -->
<g id="node12" class="node">
<title>11</title>
<path fill="none" stroke="#c6d856" stroke-width="2" stroke-dasharray="5,2" d="M802.75,-180C802.75,-180 726,-180 726,-180 720,-180 714,-174 714,-168 714,-168 714,-156 714,-156 714,-150 720,-144 726,-144 726,-144 802.75,-144 802.75,-144 808.75,-144 814.75,-150 814.75,-156 814.75,-156 814.75,-168 814.75,-168 814.75,-174 808.75,-180 802.75,-180"/>
<text text-anchor="middle" x="764.38" y="-163.75" font-family="sans" font-size="10.00">family_constraint</text>
<text text-anchor="middle" x="764.38" y="-152.5" font-family="sans" font-size="10.00">scatteritem: 7&#45;of&#45;17</text>
</g>
<!-- 3&#45;&gt;11 -->
<g id="edge27" class="edge">
<title>3&#45;&gt;11</title>
<path fill="none" stroke="grey" stroke-width="2" d="M967,-222.6C930.31,-211.8 872.17,-194.7 827.56,-181.58"/>
<polygon fill="grey" stroke="grey" stroke-width="2" points="827.94,-177.46 817.36,-178 825.97,-184.18 827.94,-177.46"/>
</g>
<!-- 12 -->
<g id="node13" class="node">
<title>12</title>
<path fill="none" stroke="#c6d856" stroke-width="2" stroke-dasharray="5,2" d="M921.75,-180C921.75,-180 845,-180 845,-180 839,-180 833,-174 833,-168 833,-168 833,-156 833,-156 833,-150 839,-144 845,-144 845,-144 921.75,-144 921.75,-144 927.75,-144 933.75,-150 933.75,-156 933.75,-156 933.75,-168 933.75,-168 933.75,-174 927.75,-180 921.75,-180"/>
<text text-anchor="middle" x="883.38" y="-163.75" font-family="sans" font-size="10.00">family_constraint</text>
<text text-anchor="middle" x="883.38" y="-152.5" font-family="sans" font-size="10.00">scatteritem: 8&#45;of&#45;17</text>
</g>
<!-- 3&#45;&gt;12 -->
<g id="edge28" class="edge">
<title>3&#45;&gt;12</title>
<path fill="none" stroke="grey" stroke-width="2" d="M972.04,-215.15C957.63,-206.68 940.19,-196.42 924.61,-187.25"/>
<polygon fill="grey" stroke="grey" stroke-width="2" points="926.05,-183.87 915.66,-181.81 922.5,-189.9 926.05,-183.87"/>
</g>
<!-- 13 -->
<g id="node14" class="node">
<title>13</title>
<path fill="none" stroke="#c6d856" stroke-width="2" stroke-dasharray="5,2" d="M1040.75,-180C1040.75,-180 964,-180 964,-180 958,-180 952,-174 952,-168 952,-168 952,-156 952,-156 952,-150 958,-144 964,-144 964,-144 1040.75,-144 1040.75,-144 1046.75,-144 1052.75,-150 1052.75,-156 1052.75,-156 1052.75,-168 1052.75,-168 1052.75,-174 1046.75,-180 1040.75,-180"/>
<text text-anchor="middle" x="1002.38" y="-163.75" font-family="sans" font-size="10.00">family_constraint</text>
<text text-anchor="middle" x="1002.38" y="-152.5" font-family="sans" font-size="10.00">scatteritem: 9&#45;of&#45;17</text>
</g>
<!-- 3&#45;&gt;13 -->
<g id="edge29" class="edge">
<title>3&#45;&gt;13</title>
<path fill="none" stroke="grey" stroke-width="2" d="M1002.38,-215.34C1002.38,-208.75 1002.38,-201.08 1002.38,-193.67"/>
<polygon fill="grey" stroke="grey" stroke-width="2" points="1005.88,-193.9 1002.38,-183.9 998.88,-193.9 1005.88,-193.9"/>
</g>
<!-- 14 -->
<g id="node15" class="node">
<title>14</title>
<path fill="none" stroke="#c6d856" stroke-width="2" stroke-dasharray="5,2" d="M1164.38,-180C1164.38,-180 1082.38,-180 1082.38,-180 1076.38,-180 1070.38,-174 1070.38,-168 1070.38,-168 1070.38,-156 1070.38,-156 1070.38,-150 1076.38,-144 1082.38,-144 1082.38,-144 1164.38,-144 1164.38,-144 1170.38,-144 1176.38,-150 1176.38,-156 1176.38,-156 1176.38,-168 1176.38,-168 1176.38,-174 1170.38,-180 1164.38,-180"/>
<text text-anchor="middle" x="1123.38" y="-163.75" font-family="sans" font-size="10.00">family_constraint</text>
<text text-anchor="middle" x="1123.38" y="-152.5" font-family="sans" font-size="10.00">scatteritem: 10&#45;of&#45;17</text>
</g>
<!-- 3&#45;&gt;14 -->
<g id="edge30" class="edge">
<title>3&#45;&gt;14</title>
<path fill="none" stroke="grey" stroke-width="2" d="M1033.22,-215.15C1047.87,-206.68 1065.6,-196.42 1081.45,-187.25"/>
<polygon fill="grey" stroke="grey" stroke-width="2" points="1083.68,-189.85 1090.58,-181.81 1080.18,-183.79 1083.68,-189.85"/>
</g>
<!-- 15 -->
<g id="node16" class="node">
<title>15</title>
<path fill="none" stroke="#c6d856" stroke-width="2" stroke-dasharray="5,2" d="M1288.38,-180C1288.38,-180 1206.38,-180 1206.38,-180 1200.38,-180 1194.38,-174 1194.38,-168 1194.38,-168 1194.38,-156 1194.38,-156 1194.38,-150 1200.38,-144 1206.38,-144 1206.38,-144 1288.38,-144 1288.38,-144 1294.38,-144 1300.38,-150 1300.38,-156 1300.38,-156 1300.38,-168 1300.38,-168 1300.38,-174 1294.38,-180 1288.38,-180"/>
<text text-anchor="middle" x="1247.38" y="-163.75" font-family="sans" font-size="10.00">family_constraint</text>
<text text-anchor="middle" x="1247.38" y="-152.5" font-family="sans" font-size="10.00">scatteritem: 11&#45;of&#45;17</text>
</g>
<!-- 3&#45;&gt;15 -->
<g id="edge31" class="edge">
<title>3&#45;&gt;15</title>
<path fill="none" stroke="grey" stroke-width="2" d="M1037.74,-222.9C1075.13,-212.21 1134.96,-195.12 1181.16,-181.92"/>
<polygon fill="grey" stroke="grey" stroke-width="2" points="1182.84,-184.51 1191.49,-178.39 1180.92,-177.78 1182.84,-184.51"/>
</g>
<!-- 16 -->
<g id="node17" class="node">
<title>16</title>
<path fill="none" stroke="#c6d856" stroke-width="2" stroke-dasharray="5,2" d="M1412.38,-180C1412.38,-180 1330.38,-180 1330.38,-180 1324.38,-180 1318.38,-174 1318.38,-168 1318.38,-168 1318.38,-156 1318.38,-156 1318.38,-150 1324.38,-144 1330.38,-144 1330.38,-144 1412.38,-144 1412.38,-144 1418.38,-144 1424.38,-150 1424.38,-156 1424.38,-156 1424.38,-168 1424.38,-168 1424.38,-174 1418.38,-180 1412.38,-180"/>
<text text-anchor="middle" x="1371.38" y="-163.75" font-family="sans" font-size="10.00">family_constraint</text>
<text text-anchor="middle" x="1371.38" y="-152.5" font-family="sans" font-size="10.00">scatteritem: 12&#45;of&#45;17</text>
</g>
<!-- 3&#45;&gt;16 -->
<g id="edge32" class="edge">
<title>3&#45;&gt;16</title>
<path fill="none" stroke="grey" stroke-width="2" d="M1037.58,-228.05C1092.64,-220.08 1202.67,-203.16 1305.22,-180.81"/>
<polygon fill="grey" stroke="grey" stroke-width="2" points="1306.68,-183.64 1315.69,-178.06 1305.17,-176.8 1306.68,-183.64"/>
</g>
<!-- 17 -->
<g id="node18" class="node">
<title>17</title>
<path fill="none" stroke="#c6d856" stroke-width="2" stroke-dasharray="5,2" d="M1536.38,-180C1536.38,-180 1454.38,-180 1454.38,-180 1448.38,-180 1442.38,-174 1442.38,-168 1442.38,-168 1442.38,-156 1442.38,-156 1442.38,-150 1448.38,-144 1454.38,-144 1454.38,-144 1536.38,-144 1536.38,-144 1542.38,-144 1548.38,-150 1548.38,-156 1548.38,-156 1548.38,-168 1548.38,-168 1548.38,-174 1542.38,-180 1536.38,-180"/>
<text text-anchor="middle" x="1495.38" y="-163.75" font-family="sans" font-size="10.00">family_constraint</text>
<text text-anchor="middle" x="1495.38" y="-152.5" font-family="sans" font-size="10.00">scatteritem: 13&#45;of&#45;17</text>
</g>
<!-- 3&#45;&gt;17 -->
<g id="edge33" class="edge">
<title>3&#45;&gt;17</title>
<path fill="none" stroke="grey" stroke-width="2" d="M1037.85,-230.39C1109.86,-224.73 1278.48,-209.56 1428.76,-180.76"/>
<polygon fill="grey" stroke="grey" stroke-width="2" points="1430.24,-183.65 1439.38,-178.3 1428.9,-176.78 1430.24,-183.65"/>
</g>
<!-- 18 -->
<g id="node19" class="node">
<title>18</title>
<path fill="none" stroke="#c6d856" stroke-width="2" stroke-dasharray="5,2" d="M1660.38,-180C1660.38,-180 1578.38,-180 1578.38,-180 1572.38,-180 1566.38,-174 1566.38,-168 1566.38,-168 1566.38,-156 1566.38,-156 1566.38,-150 1572.38,-144 1578.38,-144 1578.38,-144 1660.38,-144 1660.38,-144 1666.38,-144 1672.38,-150 1672.38,-156 1672.38,-156 1672.38,-168 1672.38,-168 1672.38,-174 1666.38,-180 1660.38,-180"/>
<text text-anchor="middle" x="1619.38" y="-163.75" font-family="sans" font-size="10.00">family_constraint</text>
<text text-anchor="middle" x="1619.38" y="-152.5" font-family="sans" font-size="10.00">scatteritem: 14&#45;of&#45;17</text>
</g>
<!-- 3&#45;&gt;18 -->
<g id="edge34" class="edge">
<title>3&#45;&gt;18</title>
<path fill="none" stroke="grey" stroke-width="2" d="M1037.73,-231.74C1124.19,-228.2 1353.27,-216.15 1552.62,-180.7"/>
<polygon fill="grey" stroke="grey" stroke-width="2" points="1554.18,-183.61 1563.4,-178.39 1552.94,-176.73 1554.18,-183.61"/>
</g>
<!-- 19 -->
<g id="node20" class="node">
<title>19</title>
<path fill="none" stroke="#c6d856" stroke-width="2" stroke-dasharray="5,2" d="M1784.38,-180C1784.38,-180 1702.38,-180 1702.38,-180 1696.38,-180 1690.38,-174 1690.38,-168 1690.38,-168 1690.38,-156 1690.38,-156 1690.38,-150 1696.38,-144 1702.38,-144 1702.38,-144 1784.38,-144 1784.38,-144 1790.38,-144 1796.38,-150 1796.38,-156 1796.38,-156 1796.38,-168 1796.38,-168 1796.38,-174 1790.38,-180 1784.38,-180"/>
<text text-anchor="middle" x="1743.38" y="-163.75" font-family="sans" font-size="10.00">family_constraint</text>
<text text-anchor="middle" x="1743.38" y="-152.5" font-family="sans" font-size="10.00">scatteritem: 15&#45;of&#45;17</text>
</g>
<!-- 3&#45;&gt;19 -->
<g id="edge35" class="edge">
<title>3&#45;&gt;19</title>
<path fill="none" stroke="grey" stroke-width="2" d="M1037.65,-232.6C1137.03,-230.97 1427.77,-222.81 1676.83,-180.61"/>
<polygon fill="grey" stroke="grey" stroke-width="2" points="1678.15,-183.59 1687.41,-178.45 1676.96,-176.69 1678.15,-183.59"/>
</g>
<!-- 20 -->
<g id="node21" class="node">
<title>20</title>
<path fill="none" stroke="#c6d856" stroke-width="2" stroke-dasharray="5,2" d="M1908.38,-180C1908.38,-180 1826.38,-180 1826.38,-180 1820.38,-180 1814.38,-174 1814.38,-168 1814.38,-168 1814.38,-156 1814.38,-156 1814.38,-150 1820.38,-144 1826.38,-144 1826.38,-144 1908.38,-144 1908.38,-144 1914.38,-144 1920.38,-150 1920.38,-156 1920.38,-156 1920.38,-168 1920.38,-168 1920.38,-174 1914.38,-180 1908.38,-180"/>
<text text-anchor="middle" x="1867.38" y="-163.75" font-family="sans" font-size="10.00">family_constraint</text>
<text text-anchor="middle" x="1867.38" y="-152.5" font-family="sans" font-size="10.00">scatteritem: 16&#45;of&#45;17</text>
</g>
<!-- 3&#45;&gt;20 -->
<g id="edge36" class="edge">
<title>3&#45;&gt;20</title>
<path fill="none" stroke="grey" stroke-width="2" d="M1037.89,-233.2C1149.35,-233.28 1502.09,-229.5 1801.02,-180.55"/>
<polygon fill="grey" stroke="grey" stroke-width="2" points="1802.13,-183.58 1811.42,-178.48 1800.98,-176.67 1802.13,-183.58"/>
</g>
<!-- 21 -->
<g id="node22" class="node">
<title>21</title>
<path fill="none" stroke="#c6d856" stroke-width="2" stroke-dasharray="5,2" d="M2032.38,-180C2032.38,-180 1950.38,-180 1950.38,-180 1944.38,-180 1938.38,-174 1938.38,-168 1938.38,-168 1938.38,-156 1938.38,-156 1938.38,-150 1944.38,-144 1950.38,-144 1950.38,-144 2032.38,-144 2032.38,-144 2038.38,-144 2044.38,-150 2044.38,-156 2044.38,-156 2044.38,-168 2044.38,-168 2044.38,-174 2038.38,-180 2032.38,-180"/>
<text text-anchor="middle" x="1991.38" y="-163.75" font-family="sans" font-size="10.00">family_constraint</text>
<text text-anchor="middle" x="1991.38" y="-152.5" font-family="sans" font-size="10.00">scatteritem: 17&#45;of&#45;17</text>
</g>
<!-- 3&#45;&gt;21 -->
<g id="edge37" class="edge">
<title>3&#45;&gt;21</title>
<path fill="none" stroke="grey" stroke-width="2" d="M1037.99,-231.97C1182.74,-227.62 1728.18,-209.72 1924.71,-180.5"/>
<polygon fill="grey" stroke="grey" stroke-width="2" points="1926.08,-183.52 1935.42,-178.51 1925,-176.6 1926.08,-183.52"/>
</g>
<!-- 4 -->
<g id="node5" class="node">
<title>4</title>
<path fill="none" stroke="#56a2d8" stroke-width="2" stroke-dasharray="5,2" d="M1026.12,-324C1026.12,-324 978.62,-324 978.62,-324 972.62,-324 966.62,-318 966.62,-312 966.62,-312 966.62,-300 966.62,-300 966.62,-294 972.62,-288 978.62,-288 978.62,-288 1026.12,-288 1026.12,-288 1032.12,-288 1038.12,-294 1038.12,-300 1038.12,-300 1038.12,-312 1038.12,-312 1038.12,-318 1032.12,-324 1026.12,-324"/>
<text text-anchor="middle" x="1002.38" y="-302.12" font-family="sans" font-size="10.00">map_opentol</text>
</g>
<!-- 4&#45;&gt;3 -->
<g id="edge20" class="edge">
<title>4&#45;&gt;3</title>
<path fill="none" stroke="grey" stroke-width="2" d="M1002.38,-287.34C1002.38,-280.75 1002.38,-273.08 1002.38,-265.67"/>
<polygon fill="grey" stroke="grey" stroke-width="2" points="1005.88,-265.9 1002.38,-255.9 998.88,-265.9 1005.88,-265.9"/>
</g>
<!-- 5 -->
<g id="node6" class="node">
<title>5</title>
<path fill="none" stroke="#56d87b" stroke-width="2" stroke-dasharray="5,2" d="M1034.38,-396C1034.38,-396 970.38,-396 970.38,-396 964.38,-396 958.38,-390 958.38,-384 958.38,-384 958.38,-372 958.38,-372 958.38,-366 964.38,-360 970.38,-360 970.38,-360 1034.38,-360 1034.38,-360 1040.38,-360 1046.38,-366 1046.38,-372 1046.38,-372 1046.38,-384 1046.38,-384 1046.38,-390 1040.38,-396 1034.38,-396"/>
<text text-anchor="middle" x="1002.38" y="-374.12" font-family="sans" font-size="10.00">create_database</text>
</g>
<!-- 5&#45;&gt;4 -->
<g id="edge21" class="edge">
<title>5&#45;&gt;4</title>
<path fill="none" stroke="grey" stroke-width="2" d="M1002.38,-359.34C1002.38,-352.75 1002.38,-345.08 1002.38,-337.67"/>
<polygon fill="grey" stroke="grey" stroke-width="2" points="1005.88,-337.9 1002.38,-327.9 998.88,-337.9 1005.88,-337.9"/>
</g>
<!-- 6&#45;&gt;1 -->
<g id="edge3" class="edge">
<title>6&#45;&gt;1</title>
<path fill="none" stroke="grey" stroke-width="2" d="M220.6,-145.73C223.56,-145.09 226.5,-144.5 229.38,-144 506,-95.87 845.44,-90.99 961.34,-90.83"/>
<polygon fill="grey" stroke="grey" stroke-width="2" points="961.04,-94.33 971.04,-90.83 961.04,-87.33 961.04,-94.33"/>
</g>
<!-- 7&#45;&gt;1 -->
<g id="edge4" class="edge">
<title>7&#45;&gt;1</title>
<path fill="none" stroke="grey" stroke-width="2" d="M339.61,-145.77C342.56,-145.12 345.5,-144.52 348.38,-144 577.43,-102.68 857.47,-93.55 961.19,-91.56"/>
<polygon fill="grey" stroke="grey" stroke-width="2" points="961.14,-95 971.07,-91.33 961.01,-88.01 961.14,-95"/>
</g>
<!-- 8&#45;&gt;1 -->
<g id="edge5" class="edge">
<title>8&#45;&gt;1</title>
<path fill="none" stroke="grey" stroke-width="2" d="M458.62,-145.83C461.57,-145.16 464.5,-144.54 467.38,-144 649.46,-109.47 870.93,-96.62 961.16,-92.59"/>
<polygon fill="grey" stroke="grey" stroke-width="2" points="961.15,-95.97 970.99,-92.04 960.85,-88.97 961.15,-95.97"/>
</g>
<!-- 9&#45;&gt;1 -->
<g id="edge6" class="edge">
<title>9&#45;&gt;1</title>
<path fill="none" stroke="grey" stroke-width="2" d="M577.64,-145.93C580.58,-145.24 583.51,-144.58 586.38,-144 722.31,-116.25 886.37,-100.44 961.37,-94.18"/>
<polygon fill="grey" stroke="grey" stroke-width="2" points="961.21,-97.46 970.89,-93.15 960.64,-90.48 961.21,-97.46"/>
</g>
<!-- 10&#45;&gt;1 -->
<g id="edge7" class="edge">
<title>10&#45;&gt;1</title>
<path fill="none" stroke="grey" stroke-width="2" d="M696.68,-146.1C699.61,-145.36 702.53,-144.66 705.38,-144 796.06,-123.12 903.91,-105.69 961.44,-96.99"/>
<polygon fill="grey" stroke="grey" stroke-width="2" points="962.56,-100.06 971.93,-95.11 961.52,-93.13 962.56,-100.06"/>
</g>
<!-- 11&#45;&gt;1 -->
<g id="edge8" class="edge">
<title>11&#45;&gt;1</title>
<path fill="none" stroke="grey" stroke-width="2" d="M815.72,-145.9C859.5,-133.02 921.56,-114.77 961.89,-102.91"/>
<polygon fill="grey" stroke="grey" stroke-width="2" points="963.57,-105.47 972.17,-99.3 961.59,-98.76 963.57,-105.47"/>
</g>
<!-- 12&#45;&gt;1 -->
<g id="edge9" class="edge">
<title>12&#45;&gt;1</title>
<path fill="none" stroke="grey" stroke-width="2" d="M913.71,-143.15C928.82,-134.27 947.26,-123.42 963.4,-113.93"/>
<polygon fill="grey" stroke="grey" stroke-width="2" points="965.29,-116.7 972.14,-108.61 961.74,-110.66 965.29,-116.7"/>
</g>
<!-- 13&#45;&gt;1 -->
<g id="edge10" class="edge">
<title>13&#45;&gt;1</title>
<path fill="none" stroke="grey" stroke-width="2" d="M1002.38,-143.34C1002.38,-136.75 1002.38,-129.08 1002.38,-121.67"/>
<polygon fill="grey" stroke="grey" stroke-width="2" points="1005.88,-121.9 1002.38,-111.9 998.88,-121.9 1005.88,-121.9"/>
</g>
<!-- 14&#45;&gt;1 -->
<g id="edge11" class="edge">
<title>14&#45;&gt;1</title>
<path fill="none" stroke="grey" stroke-width="2" d="M1092.53,-143.15C1077.05,-134.2 1058.14,-123.26 1041.64,-113.72"/>
<polygon fill="grey" stroke="grey" stroke-width="2" points="1043.09,-110.35 1032.68,-108.37 1039.58,-116.41 1043.09,-110.35"/>
</g>
<!-- 15&#45;&gt;1 -->
<g id="edge12" class="edge">
<title>15&#45;&gt;1</title>
<path fill="none" stroke="grey" stroke-width="2" d="M1193.61,-145.64C1148.26,-132.68 1084.34,-114.42 1043.12,-102.64"/>
<polygon fill="grey" stroke="grey" stroke-width="2" points="1043.43,-98.52 1032.85,-99.14 1041.5,-105.25 1043.43,-98.52"/>
</g>
<!-- 16&#45;&gt;1 -->
<g id="edge13" class="edge">
<title>16&#45;&gt;1</title>
<path fill="none" stroke="grey" stroke-width="2" d="M1317.69,-145.94C1314.88,-145.26 1312.1,-144.61 1309.38,-144 1214.85,-122.93 1102.37,-105.41 1043.29,-96.78"/>
<polygon fill="grey" stroke="grey" stroke-width="2" points="1042.89,-92.89 1032.49,-94.92 1041.89,-99.82 1042.89,-92.89"/>
</g>
<!-- 17&#45;&gt;1 -->
<g id="edge14" class="edge">
<title>17&#45;&gt;1</title>
<path fill="none" stroke="grey" stroke-width="2" d="M1441.38,-145.7C1438.68,-145.09 1436,-144.52 1433.38,-144 1291.74,-116.03 1120.82,-100.25 1043.69,-94.07"/>
<polygon fill="grey" stroke="grey" stroke-width="2" points="1044.08,-90.36 1033.84,-93.06 1043.54,-97.33 1044.08,-90.36"/>
</g>
<!-- 18&#45;&gt;1 -->
<g id="edge15" class="edge">
<title>18&#45;&gt;1</title>
<path fill="none" stroke="grey" stroke-width="2" d="M1565.4,-145.61C1562.7,-145.03 1560.01,-144.48 1557.38,-144 1367.24,-109.12 1135.99,-96.41 1043.49,-92.5"/>
<polygon fill="grey" stroke="grey" stroke-width="2" points="1043.75,-88.89 1033.62,-91.98 1043.47,-95.88 1043.75,-88.89"/>
</g>
<!-- 19&#45;&gt;1 -->
<g id="edge16" class="edge">
<title>19&#45;&gt;1</title>
<path fill="none" stroke="grey" stroke-width="2" d="M1689.41,-145.55C1686.7,-144.98 1684.01,-144.46 1681.38,-144 1442.3,-102.28 1150.1,-93.39 1043.66,-91.5"/>
<polygon fill="grey" stroke="grey" stroke-width="2" points="1043.81,-87.96 1033.75,-91.29 1043.69,-94.96 1043.81,-87.96"/>
</g>
<!-- 20&#45;&gt;1 -->
<g id="edge17" class="edge">
<title>20&#45;&gt;1</title>
<path fill="none" stroke="grey" stroke-width="2" d="M1813.42,-145.52C1810.71,-144.96 1808.02,-144.44 1805.38,-144 1516.5,-95.38 1162.17,-90.85 1043.37,-90.8"/>
<polygon fill="grey" stroke="grey" stroke-width="2" points="1043.7,-87.3 1033.71,-90.81 1043.71,-94.3 1043.7,-87.3"/>
</g>
<!-- 21&#45;&gt;1 -->
<g id="edge18" class="edge">
<title>21&#45;&gt;1</title>
<path fill="none" stroke="grey" stroke-width="2" d="M1937.42,-145.49C1934.71,-144.93 1932.02,-144.43 1929.38,-144 1754.9,-115.42 1198.81,-96.9 1043.19,-92.19"/>
<polygon fill="grey" stroke="grey" stroke-width="2" points="1043.73,-88.61 1033.62,-91.81 1043.52,-95.61 1043.73,-88.61"/>
</g>
</g>
</svg>
