<?xml version="1.0" encoding="UTF-8" standalone="no"?>
<!DOCTYPE svg PUBLIC "-//W3C//DTD SVG 1.1//EN"
 "http://www.w3.org/Graphics/SVG/1.1/DTD/svg11.dtd">
<!-- Generated by graphviz version 7.1.0 (0)
 -->
<!-- Title: snakemake_dag Pages: 1 -->
<svg width="207pt" height="980pt"
 viewBox="0.00 0.00 206.50 980.00" xmlns="http://www.w3.org/2000/svg" xmlns:xlink="http://www.w3.org/1999/xlink">
<g id="graph0" class="graph" transform="scale(1 1) rotate(0) translate(4 976)">
<title>snakemake_dag</title>
<polygon fill="white" stroke="none" points="-4,4 -4,-976 202.5,-976 202.5,4 -4,4"/>
<!-- 0 -->
<g id="node1" class="node">
<title>0</title>
<path fill="none" stroke="#d8b456" stroke-width="2" d="M69,-36C69,-36 39,-36 39,-36 33,-36 27,-30 27,-24 27,-24 27,-12 27,-12 27,-6 33,0 39,0 39,0 69,0 69,0 75,0 81,-6 81,-12 81,-12 81,-24 81,-24 81,-30 75,-36 69,-36"/>
<text text-anchor="middle" x="54" y="-15.5" font-family="sans" font-size="10.00">all</text>
</g>
<!-- 1 -->
<g id="node2" class="node">
<title>1</title>
<path fill="none" stroke="#d87556" stroke-width="2" d="M77,-108C77,-108 31,-108 31,-108 25,-108 19,-102 19,-96 19,-96 19,-84 19,-84 19,-78 25,-72 31,-72 31,-72 77,-72 77,-72 83,-72 89,-78 89,-84 89,-84 89,-96 89,-96 89,-102 83,-108 77,-108"/>
<text text-anchor="middle" x="54" y="-87.5" font-family="sans" font-size="10.00">graft_clades</text>
</g>
<!-- 1&#45;&gt;0 -->
<g id="edge1" class="edge">
<title>1&#45;&gt;0</title>
<path fill="none" stroke="grey" stroke-width="2" d="M54,-71.34C54,-64.75 54,-57.08 54,-49.67"/>
<polygon fill="grey" stroke="grey" stroke-width="2" points="57.5,-49.93 54,-39.93 50.5,-49.93 57.5,-49.93"/>
</g>
<!-- 2 -->
<g id="node3" class="node">
<title>2</title>
<path fill="none" stroke="#5692d8" stroke-width="2" d="M123.5,-180C123.5,-180 58.5,-180 58.5,-180 52.5,-180 46.5,-174 46.5,-168 46.5,-168 46.5,-156 46.5,-156 46.5,-150 52.5,-144 58.5,-144 58.5,-144 123.5,-144 123.5,-144 129.5,-144 135.5,-150 135.5,-156 135.5,-156 135.5,-168 135.5,-168 135.5,-174 129.5,-180 123.5,-180"/>
<text text-anchor="middle" x="91" y="-159.5" font-family="sans" font-size="10.00">reroot_backbone</text>
</g>
<!-- 2&#45;&gt;1 -->
<g id="edge3" class="edge">
<title>2&#45;&gt;1</title>
<path fill="none" stroke="grey" stroke-width="2" d="M81.66,-143.34C77.97,-136.34 73.62,-128.12 69.48,-120.28"/>
<polygon fill="grey" stroke="grey" stroke-width="2" points="72.64,-118.78 64.88,-111.58 66.46,-122.05 72.64,-118.78"/>
</g>
<!-- 3 -->
<g id="node4" class="node">
<title>3</title>
<path fill="none" stroke="#88d856" stroke-width="2" d="M179.5,-252C179.5,-252 96.5,-252 96.5,-252 90.5,-252 84.5,-246 84.5,-240 84.5,-240 84.5,-228 84.5,-228 84.5,-222 90.5,-216 96.5,-216 96.5,-216 179.5,-216 179.5,-216 185.5,-216 191.5,-222 191.5,-228 191.5,-228 191.5,-240 191.5,-240 191.5,-246 185.5,-252 179.5,-252"/>
<text text-anchor="middle" x="138" y="-231.5" font-family="sans" font-size="10.00">run_raxml_backbone</text>
</g>
<!-- 3&#45;&gt;2 -->
<g id="edge5" class="edge">
<title>3&#45;&gt;2</title>
<path fill="none" stroke="grey" stroke-width="2" d="M126.14,-215.34C121.28,-208.1 115.53,-199.53 110.1,-191.45"/>
<polygon fill="grey" stroke="grey" stroke-width="2" points="113.19,-189.77 104.71,-183.41 107.38,-193.67 113.19,-189.77"/>
</g>
<!-- 4 -->
<g id="node5" class="node">
<title>4</title>
<path fill="none" stroke="#d89556" stroke-width="2" d="M100,-324C100,-324 12,-324 12,-324 6,-324 0,-318 0,-312 0,-312 0,-300 0,-300 0,-294 6,-288 12,-288 12,-288 100,-288 100,-288 106,-288 112,-294 112,-300 112,-300 112,-312 112,-312 112,-318 106,-324 100,-324"/>
<text text-anchor="middle" x="56" y="-303.5" font-family="sans" font-size="10.00">prep_raxml_backbone</text>
</g>
<!-- 4&#45;&gt;1 -->
<g id="edge2" class="edge">
<title>4&#45;&gt;1</title>
<path fill="none" stroke="grey" stroke-width="2" d="M50.7,-287.07C42.6,-257.28 28.91,-195.72 37,-144 38.19,-136.39 40.29,-128.38 42.61,-120.95"/>
<polygon fill="grey" stroke="grey" stroke-width="2" points="45.86,-122.27 45.78,-111.68 39.24,-120.01 45.86,-122.27"/>
</g>
<!-- 4&#45;&gt;2 -->
<g id="edge4" class="edge">
<title>4&#45;&gt;2</title>
<path fill="none" stroke="grey" stroke-width="2" d="M59.36,-287.17C62.86,-269.13 68.7,-240.48 75,-216 76.94,-208.46 79.25,-200.39 81.51,-192.87"/>
<polygon fill="grey" stroke="grey" stroke-width="2" points="84.81,-194.04 84.41,-183.46 78.12,-191.98 84.81,-194.04"/>
</g>
<!-- 4&#45;&gt;3 -->
<g id="edge6" class="edge">
<title>4&#45;&gt;3</title>
<path fill="none" stroke="grey" stroke-width="2" d="M76.69,-287.34C85.94,-279.44 97.04,-269.96 107.24,-261.26"/>
<polygon fill="grey" stroke="grey" stroke-width="2" points="109.39,-264.02 114.73,-254.87 104.85,-258.7 109.39,-264.02"/>
</g>
<!-- 5 -->
<g id="node6" class="node">
<title>5</title>
<path fill="none" stroke="#56d863" stroke-width="2" d="M93,-396C93,-396 19,-396 19,-396 13,-396 7,-390 7,-384 7,-384 7,-372 7,-372 7,-366 13,-360 19,-360 19,-360 93,-360 93,-360 99,-360 105,-366 105,-372 105,-372 105,-384 105,-384 105,-390 99,-396 93,-396"/>
<text text-anchor="middle" x="56" y="-375.5" font-family="sans" font-size="10.00">choose_exemplars</text>
</g>
<!-- 5&#45;&gt;4 -->
<g id="edge7" class="edge">
<title>5&#45;&gt;4</title>
<path fill="none" stroke="grey" stroke-width="2" d="M56,-359.34C56,-352.75 56,-345.08 56,-337.67"/>
<polygon fill="grey" stroke="grey" stroke-width="2" points="59.5,-337.93 56,-327.93 52.5,-337.93 59.5,-337.93"/>
</g>
<!-- 6 -->
<g id="node7" class="node">
<title>6</title>
<path fill="none" stroke="#56d8c1" stroke-width="2" d="M75,-684C75,-684 37,-684 37,-684 31,-684 25,-678 25,-672 25,-672 25,-660 25,-660 25,-654 31,-648 37,-648 37,-648 75,-648 75,-648 81,-648 87,-654 87,-660 87,-660 87,-672 87,-672 87,-678 81,-684 75,-684"/>
<text text-anchor="middle" x="56" y="-663.5" font-family="sans" font-size="10.00">msa_hmm</text>
</g>
<!-- 6&#45;&gt;5 -->
<g id="edge9" class="edge">
<title>6&#45;&gt;5</title>
<path fill="none" stroke="grey" stroke-width="2" d="M52.87,-647.1C46.48,-607.95 33.35,-511.84 43,-432 43.9,-424.59 45.47,-416.73 47.22,-409.39"/>
<polygon fill="grey" stroke="grey" stroke-width="2" points="50.56,-410.44 49.69,-399.88 43.79,-408.68 50.56,-410.44"/>
</g>
<!-- 11 -->
<g id="node12" class="node">
<title>11</title>
<path fill="none" stroke="#68d856" stroke-width="2" d="M143.5,-468C143.5,-468 64.5,-468 64.5,-468 58.5,-468 52.5,-462 52.5,-456 52.5,-456 52.5,-444 52.5,-444 52.5,-438 58.5,-432 64.5,-432 64.5,-432 143.5,-432 143.5,-432 149.5,-432 155.5,-438 155.5,-444 155.5,-444 155.5,-456 155.5,-456 155.5,-462 149.5,-468 143.5,-468"/>
<text text-anchor="middle" x="104" y="-447.5" font-family="sans" font-size="10.00">reroot_raxml_output</text>
</g>
<!-- 6&#45;&gt;11 -->
<g id="edge16" class="edge">
<title>6&#45;&gt;11</title>
<path fill="none" stroke="grey" stroke-width="2" d="M55.47,-647.1C55.09,-616.83 56.61,-553.94 73,-504 75.74,-495.66 79.92,-487.2 84.34,-479.56"/>
<polygon fill="grey" stroke="grey" stroke-width="2" points="87.17,-481.64 89.47,-471.3 81.22,-477.95 87.17,-481.64"/>
</g>
<!-- 12 -->
<g id="node13" class="node">
<title>12</title>
<path fill="none" stroke="#d8d356" stroke-width="2" d="M129.5,-540C129.5,-540 94.5,-540 94.5,-540 88.5,-540 82.5,-534 82.5,-528 82.5,-528 82.5,-516 82.5,-516 82.5,-510 88.5,-504 94.5,-504 94.5,-504 129.5,-504 129.5,-504 135.5,-504 141.5,-510 141.5,-516 141.5,-516 141.5,-528 141.5,-528 141.5,-534 135.5,-540 129.5,-540"/>
<text text-anchor="middle" x="112" y="-519.5" font-family="sans" font-size="10.00">run_raxml</text>
</g>
<!-- 6&#45;&gt;12 -->
<g id="edge19" class="edge">
<title>6&#45;&gt;12</title>
<path fill="none" stroke="grey" stroke-width="2" d="M63.09,-647.02C72.43,-623.33 88.99,-581.35 100.22,-552.86"/>
<polygon fill="grey" stroke="grey" stroke-width="2" points="103.44,-554.24 103.85,-543.65 96.93,-551.67 103.44,-554.24"/>
</g>
<!-- 13 -->
<g id="node14" class="node">
<title>13</title>
<path fill="none" stroke="#56d0d8" stroke-width="2" d="M173.5,-612C173.5,-612 132.5,-612 132.5,-612 126.5,-612 120.5,-606 120.5,-600 120.5,-600 120.5,-588 120.5,-588 120.5,-582 126.5,-576 132.5,-576 132.5,-576 173.5,-576 173.5,-576 179.5,-576 185.5,-582 185.5,-588 185.5,-588 185.5,-600 185.5,-600 185.5,-606 179.5,-612 173.5,-612"/>
<text text-anchor="middle" x="153" y="-591.5" font-family="sans" font-size="10.00">prep_raxml</text>
</g>
<!-- 6&#45;&gt;13 -->
<g id="edge22" class="edge">
<title>6&#45;&gt;13</title>
<path fill="none" stroke="grey" stroke-width="2" d="M80.73,-647.15C92.02,-639.01 105.59,-629.22 117.9,-620.33"/>
<polygon fill="grey" stroke="grey" stroke-width="2" points="119.8,-623.27 125.86,-614.58 115.71,-617.6 119.8,-623.27"/>
</g>
<!-- 7 -->
<g id="node8" class="node">
<title>7</title>
<path fill="none" stroke="#56d8a2" stroke-width="2" d="M130,-900C130,-900 84,-900 84,-900 78,-900 72,-894 72,-888 72,-888 72,-876 72,-876 72,-870 78,-864 84,-864 84,-864 130,-864 130,-864 136,-864 142,-870 142,-876 142,-876 142,-888 142,-888 142,-894 136,-900 130,-900"/>
<text text-anchor="middle" x="107" y="-879.5" font-family="sans" font-size="10.00">family_fasta</text>
</g>
<!-- 7&#45;&gt;6 -->
<g id="edge11" class="edge">
<title>7&#45;&gt;6</title>
<path fill="none" stroke="grey" stroke-width="2" d="M99.92,-863.03C96.08,-852.86 91.42,-839.83 88,-828 75.05,-783.2 65.58,-729.9 60.43,-697.26"/>
<polygon fill="grey" stroke="grey" stroke-width="2" points="63.93,-696.97 58.95,-687.62 57.01,-698.03 63.93,-696.97"/>
</g>
<!-- 9 -->
<g id="node10" class="node">
<title>9</title>
<path fill="none" stroke="#d85656" stroke-width="2" d="M147,-756C147,-756 93,-756 93,-756 87,-756 81,-750 81,-744 81,-744 81,-732 81,-732 81,-726 87,-720 93,-720 93,-720 147,-720 147,-720 153,-720 159,-726 159,-732 159,-732 159,-744 159,-744 159,-750 153,-756 147,-756"/>
<text text-anchor="middle" x="120" y="-735.5" font-family="sans" font-size="10.00">get_outgroups</text>
</g>
<!-- 7&#45;&gt;9 -->
<g id="edge14" class="edge">
<title>7&#45;&gt;9</title>
<path fill="none" stroke="grey" stroke-width="2" d="M100.5,-863.11C94.84,-845.02 88.35,-816.34 94,-792 95.86,-783.97 99.12,-775.76 102.71,-768.27"/>
<polygon fill="grey" stroke="grey" stroke-width="2" points="105.74,-770.03 107.28,-759.55 99.54,-766.79 105.74,-770.03"/>
</g>
<!-- 10 -->
<g id="node11" class="node">
<title>10</title>
<path fill="none" stroke="#bed856" stroke-width="2" d="M163,-828C163,-828 115,-828 115,-828 109,-828 103,-822 103,-816 103,-816 103,-804 103,-804 103,-798 109,-792 115,-792 115,-792 163,-792 163,-792 169,-792 175,-798 175,-804 175,-804 175,-816 175,-816 175,-822 169,-828 163,-828"/>
<text text-anchor="middle" x="139" y="-807.5" font-family="sans" font-size="10.00">makeblastdb</text>
</g>
<!-- 7&#45;&gt;10 -->
<g id="edge15" class="edge">
<title>7&#45;&gt;10</title>
<path fill="none" stroke="grey" stroke-width="2" d="M115.07,-863.34C118.23,-856.43 121.94,-848.31 125.49,-840.56"/>
<polygon fill="grey" stroke="grey" stroke-width="2" points="128.58,-842.2 129.56,-831.65 122.22,-839.29 128.58,-842.2"/>
</g>
<!-- 14 -->
<g id="node15" class="node">
<title>14</title>
<path fill="none" stroke="#56d882" stroke-width="2" d="M186.5,-684C186.5,-684 119.5,-684 119.5,-684 113.5,-684 107.5,-678 107.5,-672 107.5,-672 107.5,-660 107.5,-660 107.5,-654 113.5,-648 119.5,-648 119.5,-648 186.5,-648 186.5,-648 192.5,-648 198.5,-654 198.5,-660 198.5,-660 198.5,-672 198.5,-672 198.5,-678 192.5,-684 186.5,-684"/>
<text text-anchor="middle" x="153" y="-663.5" font-family="sans" font-size="10.00">family_constraint</text>
</g>
<!-- 7&#45;&gt;14 -->
<g id="edge24" class="edge">
<title>7&#45;&gt;14</title>
<path fill="none" stroke="grey" stroke-width="2" d="M142.64,-865.96C158.32,-857.32 175.16,-844.81 184,-828 206.29,-785.59 185.87,-729.34 169.26,-695.79"/>
<polygon fill="grey" stroke="grey" stroke-width="2" points="172.52,-694.47 164.8,-687.21 166.31,-697.7 172.52,-694.47"/>
</g>
<!-- 8 -->
<g id="node9" class="node">
<title>8</title>
<path fill="none" stroke="#56b1d8" stroke-width="2" d="M131,-972C131,-972 83,-972 83,-972 77,-972 71,-966 71,-960 71,-960 71,-948 71,-948 71,-942 77,-936 83,-936 83,-936 131,-936 131,-936 137,-936 143,-942 143,-948 143,-948 143,-960 143,-960 143,-966 137,-972 131,-972"/>
<text text-anchor="middle" x="107" y="-951.5" font-family="sans" font-size="10.00">map_opentol</text>
</g>
<!-- 8&#45;&gt;7 -->
<g id="edge12" class="edge">
<title>8&#45;&gt;7</title>
<path fill="none" stroke="grey" stroke-width="2" d="M107,-935.34C107,-928.75 107,-921.08 107,-913.67"/>
<polygon fill="grey" stroke="grey" stroke-width="2" points="110.5,-913.93 107,-903.93 103.5,-913.93 110.5,-913.93"/>
</g>
<!-- 9&#45;&gt;6 -->
<g id="edge10" class="edge">
<title>9&#45;&gt;6</title>
<path fill="none" stroke="grey" stroke-width="2" d="M103.85,-719.34C96.93,-711.77 88.69,-702.75 81.01,-694.35"/>
<polygon fill="grey" stroke="grey" stroke-width="2" points="83.74,-692.15 74.41,-687.14 78.57,-696.88 83.74,-692.15"/>
</g>
<!-- 9&#45;&gt;14 -->
<g id="edge23" class="edge">
<title>9&#45;&gt;14</title>
<path fill="none" stroke="grey" stroke-width="2" d="M128.33,-719.34C131.59,-712.43 135.41,-704.31 139.07,-696.56"/>
<polygon fill="grey" stroke="grey" stroke-width="2" points="142.17,-698.18 143.27,-687.64 135.84,-695.19 142.17,-698.18"/>
</g>
<!-- 10&#45;&gt;9 -->
<g id="edge13" class="edge">
<title>10&#45;&gt;9</title>
<path fill="none" stroke="grey" stroke-width="2" d="M134.21,-791.34C132.4,-784.67 130.28,-776.89 128.25,-769.39"/>
<polygon fill="grey" stroke="grey" stroke-width="2" points="131.65,-768.56 125.65,-759.82 124.89,-770.39 131.65,-768.56"/>
</g>
<!-- 11&#45;&gt;5 -->
<g id="edge8" class="edge">
<title>11&#45;&gt;5</title>
<path fill="none" stroke="grey" stroke-width="2" d="M91.89,-431.34C86.92,-424.1 81.05,-415.53 75.51,-407.45"/>
<polygon fill="grey" stroke="grey" stroke-width="2" points="78.53,-405.67 69.99,-399.4 72.76,-409.62 78.53,-405.67"/>
</g>
<!-- 12&#45;&gt;11 -->
<g id="edge17" class="edge">
<title>12&#45;&gt;11</title>
<path fill="none" stroke="grey" stroke-width="2" d="M109.98,-503.34C109.23,-496.75 108.35,-489.08 107.5,-481.67"/>
<polygon fill="grey" stroke="grey" stroke-width="2" points="111,-481.45 106.39,-471.91 104.05,-482.24 111,-481.45"/>
</g>
<!-- 13&#45;&gt;11 -->
<g id="edge18" class="edge">
<title>13&#45;&gt;11</title>
<path fill="none" stroke="grey" stroke-width="2" d="M155.79,-575.24C157.93,-556.76 159.16,-527.31 150,-504 146.35,-494.7 140.31,-485.91 133.79,-478.27"/>
<polygon fill="grey" stroke="grey" stroke-width="2" points="136.54,-476.09 127.17,-471.15 131.42,-480.86 136.54,-476.09"/>
</g>
<!-- 13&#45;&gt;12 -->
<g id="edge20" class="edge">
<title>13&#45;&gt;12</title>
<path fill="none" stroke="grey" stroke-width="2" d="M142.65,-575.34C138.51,-568.26 133.63,-559.92 128.99,-552"/>
<polygon fill="grey" stroke="grey" stroke-width="2" points="132.09,-550.37 124.02,-543.51 126.05,-553.91 132.09,-550.37"/>
</g>
<!-- 14&#45;&gt;13 -->
<g id="edge21" class="edge">
<title>14&#45;&gt;13</title>
<path fill="none" stroke="grey" stroke-width="2" d="M153,-647.34C153,-640.75 153,-633.08 153,-625.67"/>
<polygon fill="grey" stroke="grey" stroke-width="2" points="156.5,-625.93 153,-615.93 149.5,-625.93 156.5,-625.93"/>
</g>
</g>
</svg>
